<svg xmlns="http://www.w3.org/2000/svg" xmlns:xlink="http://www.w3.org/1999/xlink"><defs/><symbol id="arrow-diagonal" viewBox="0 0 20 21">
<path d="M15.3849 4.52121L5.48539 4.52121C5.21635 4.525 4.96976 4.67204 4.83852 4.90693C4.70728 5.14183 4.71132 5.4289 4.84912 5.66C4.98693 5.89111 5.23756 6.03114 5.5066 6.02735L13.5747 6.02028L4.21967 15.3753C3.92678 15.6682 3.92678 16.1431 4.21967 16.436C4.51256 16.7289 4.98744 16.7289 5.28033 16.436L14.6283 7.08801V15.149C14.6257 15.3486 14.7038 15.5408 14.845 15.6819C14.9861 15.823 15.1782 15.9011 15.3778 15.8986C15.5776 15.9034 15.7701 15.8238 15.9081 15.6794C16.0496 15.5393 16.1286 15.3481 16.1273 15.149V5.24953C16.1271 4.83568 15.7917 4.50026 15.3778 4.5L15.3849 4.52121Z"/>
</symbol><symbol id="arrow-left" viewBox="0 0 20 21">
<path d="M3.18015 10.094L8.67886 4.66531C8.83041 4.51985 9.04905 4.46526 9.25242 4.5221C9.45579 4.57894 9.613 4.73858 9.66482 4.94088C9.71665 5.14319 9.65522 5.35742 9.50367 5.50288L5.01829 9.92339H16.4109C16.7362 9.92339 17 10.1838 17 10.505C17 10.8263 16.7362 11.0867 16.4109 11.0867H5.02615L9.50367 15.5072C9.61596 15.6152 9.67929 15.7634 9.67929 15.9182C9.67929 16.073 9.61596 16.2212 9.50367 16.3292C9.39539 16.4414 9.24425 16.5034 9.08734 16.4999C8.93096 16.5006 8.78089 16.4391 8.67101 16.3292L3.1723 10.9006C2.94257 10.6735 2.94257 10.3056 3.1723 10.0785L3.18015 10.094Z"/>
</symbol><symbol id="arrow-right" viewBox="0 0 20 20">
<path d="M16.8198 9.594L11.3211 4.16531C11.1696 4.01985 10.951 3.96526 10.7476 4.0221C10.5442 4.07894 10.387 4.23858 10.3352 4.44088C10.2834 4.64319 10.3448 4.85742 10.4963 5.00288L14.9817 9.42339H3.58915C3.26377 9.42339 3 9.6838 3 10.005C3 10.3263 3.26377 10.5867 3.58915 10.5867H14.9739L10.4963 15.0072C10.384 15.1152 10.3207 15.2634 10.3207 15.4182C10.3207 15.573 10.384 15.7212 10.4963 15.8292C10.6046 15.9414 10.7558 16.0034 10.9127 15.9999C11.069 16.0006 11.2191 15.9391 11.329 15.8292L16.8277 10.4006C17.0574 10.1735 17.0574 9.80558 16.8277 9.57849L16.8198 9.594Z"/>
</symbol><symbol id="articles" viewBox="0 0 24 25">
<path d="M6.75 6.5C6.33579 6.5 6 6.83579 6 7.25C6 7.66421 6.33579 8 6.75 8H14.75C15.1642 8 15.5 7.66421 15.5 7.25C15.5 6.83579 15.1642 6.5 14.75 6.5H6.75Z"/>
<path d="M6 11.25C6 10.8358 6.33579 10.5 6.75 10.5H12.75C13.1642 10.5 13.5 10.8358 13.5 11.25C13.5 11.6642 13.1642 12 12.75 12H6.75C6.33579 12 6 11.6642 6 11.25Z"/>
<path d="M6.75 14.5C6.33579 14.5 6 14.8358 6 15.25C6 15.6642 6.33579 16 6.75 16H8.75C9.16421 16 9.5 15.6642 9.5 15.25C9.5 14.8358 9.16421 14.5 8.75 14.5H6.75Z"/>
<path fill-rule="evenodd" clip-rule="evenodd" d="M11.3161 1.5H12.1839C13.8354 1.5 15.1208 1.49999 16.1519 1.58424C17.1988 1.66977 18.0494 1.84588 18.8144 2.23571C20.0845 2.88285 21.1171 3.91547 21.7643 5.18556C22.1541 5.95065 22.3302 6.80124 22.4158 7.84814C22.5 8.87918 22.5 10.1645 22.5 11.8158V15.4452C22.5 15.7599 22.5 15.9476 22.4901 16.1305C22.4067 17.6661 21.8015 19.1272 20.7746 20.272C20.6523 20.4084 20.5196 20.541 20.297 20.7637L20.2637 20.797C20.041 21.0196 19.9084 21.1523 19.772 21.2746C18.6272 22.3015 17.1661 22.9067 15.6305 22.9901C15.4476 23 15.2601 23 14.9453 23H11.316C9.6647 23 8.37918 23 7.34814 22.9158C6.30124 22.8302 5.45065 22.6541 4.68556 22.2643C3.41547 21.6171 2.38285 20.5845 1.73571 19.3144C1.34588 18.5494 1.16977 17.6988 1.08424 16.6519C0.999993 15.6208 0.999996 14.3354 1 12.684V11.8161C0.999996 10.1646 0.999993 8.87922 1.08424 7.84814C1.16977 6.80124 1.34588 5.95065 1.73571 5.18556C2.38285 3.91547 3.41547 2.88285 4.68556 2.23571C5.45065 1.84588 6.30124 1.66977 7.34814 1.58424C8.37922 1.49999 9.66463 1.5 11.3161 1.5ZM7.47029 3.07925C6.51615 3.15721 5.88493 3.30809 5.36655 3.57222C4.3787 4.07555 3.57555 4.8787 3.07222 5.86655C2.80809 6.38493 2.65721 7.01615 2.57925 7.97029C2.50058 8.93317 2.5 10.1575 2.5 11.85V12.65C2.5 14.3425 2.50058 15.5668 2.57925 16.5297C2.65721 17.4838 2.80809 18.1151 3.07222 18.6334C3.57555 19.6213 4.3787 20.4244 5.36655 20.9278C5.88493 21.1919 6.51615 21.3428 7.47029 21.4207C8.43317 21.4994 9.65747 21.5 11.35 21.5L15 21.5V19.4195C15 18.8854 15 18.4395 15.0297 18.0753C15.0608 17.6954 15.1279 17.3388 15.2997 17.0015C15.5634 16.4841 15.9841 16.0634 16.5015 15.7997C16.8388 15.6279 17.1954 15.5607 17.5753 15.5297C17.9396 15.5 18.3854 15.5 18.9195 15.5H21L21 11.85C21 10.1575 20.9994 8.93317 20.9207 7.97029C20.8428 7.01615 20.6919 6.38493 20.4278 5.86655C19.9244 4.8787 19.1213 4.07555 18.1334 3.57222C17.6151 3.30809 16.9838 3.15721 16.0297 3.07925C15.0668 3.00058 13.8425 3 12.15 3H11.35C9.65747 3 8.43317 3.00058 7.47029 3.07925ZM18.7704 20.158C18.1203 20.7412 17.3391 21.1495 16.5 21.3526V19.45C16.5 18.8775 16.5006 18.4933 16.5248 18.1974C16.5482 17.9103 16.5901 17.773 16.6362 17.6825C16.7561 17.4473 16.9473 17.2561 17.1825 17.1362C17.2731 17.0901 17.4104 17.0482 17.6975 17.0247C17.9934 17.0006 18.3776 17 18.95 17H20.8526C20.6495 17.8391 20.2412 18.6203 19.658 19.2704C19.5661 19.3728 19.4639 19.4755 19.2197 19.7197C18.9755 19.9639 18.8728 20.0661 18.7704 20.158Z"/>
</symbol><symbol id="basket-inside" viewBox="0 0 24 25">
<path fill-rule="evenodd" clip-rule="evenodd" d="M20.8126 7.5L22.0726 15.84C22.5826 19.49 20.0726 22.81 16.6726 22.84H7.41262C4.07262 22.84 1.53262 19.49 2.07262 15.84L3.33262 7.5C3.63175 4.74237 5.9013 2.61732 8.67262 2.5H15.4726C18.2439 2.61732 20.5135 4.74237 20.8126 7.5ZM8.17262 8.45C8.17812 10.6016 9.92099 12.3445 12.0726 12.35C14.2243 12.3445 15.9671 10.6016 15.9726 8.45C15.9726 8.03579 15.6368 7.7 15.2226 7.7C14.8084 7.7 14.4726 8.03579 14.4726 8.45C14.4726 9.77548 13.3981 10.85 12.0726 10.85C10.7471 10.85 9.67262 9.77548 9.67262 8.45C9.67262 8.03579 9.33684 7.7 8.92262 7.7C8.50841 7.7 8.17262 8.03579 8.17262 8.45Z"/>
</symbol><symbol id="basket" viewBox="0 0 24 25">
<path d="M9.76773 9.25003C9.76773 10.4927 10.7751 11.5 12.0177 11.5C13.2604 11.5 14.2677 10.4927 14.2677 9.25003V7.25003C14.2677 6.83581 14.6035 6.50003 15.0177 6.50003C15.4319 6.50003 15.7677 6.83581 15.7677 7.25003V9.25003C15.7677 11.3211 14.0888 13 12.0177 13C9.94666 13 8.26773 11.3211 8.26773 9.25003V7.25003C8.26773 6.83581 8.60352 6.50003 9.01773 6.50003C9.43195 6.50003 9.76773 6.83581 9.76773 7.25003V9.25003Z"/>
<path fill-rule="evenodd" clip-rule="evenodd" d="M11.8439 1.50001C9.67833 1.49975 8.39374 1.4996 7.31042 1.87849C5.60593 2.47464 4.21136 3.72889 3.43846 5.36085C2.94723 6.39807 2.81166 7.67549 2.58311 9.82896L2.32523 12.2562C2.16579 13.7568 2.04191 14.9227 2.00887 15.8635C1.9754 16.8163 2.03149 17.5999 2.26568 18.3249C2.85537 20.1504 4.19399 21.6388 5.94702 22.4181C6.6432 22.7275 7.41646 22.8661 8.36746 22.9335C9.30649 23 10.4789 23 11.9879 23H12.0473C13.5563 23 14.7287 23 15.6678 22.9335C16.6188 22.8661 17.392 22.7275 18.0882 22.4181C19.8412 21.6388 21.1799 20.1504 21.7695 18.3249C22.0037 17.5999 22.0598 16.8163 22.0264 15.8635C21.9933 14.9227 21.8694 13.7569 21.71 12.2564L21.4521 9.82895C21.2236 7.67549 21.088 6.39807 20.5968 5.36085C19.8239 3.72889 18.4293 2.47464 16.7248 1.87849C15.6415 1.4996 14.3569 1.49975 12.1913 1.50001H11.8439ZM7.80564 3.29439C8.61738 3.01048 9.62516 3.00003 12.0176 3.00003C14.4101 3.00003 15.4178 3.01048 16.2296 3.29439C17.5553 3.75806 18.64 4.73358 19.2411 6.00289C19.6092 6.7801 19.7261 7.78113 19.9788 10.1602L20.2153 12.3852C20.3785 13.9214 20.4963 15.0347 20.5273 15.9162C20.558 16.7918 20.4994 17.3769 20.3422 17.8638C19.8835 19.2837 18.8424 20.4413 17.4789 21.0474C17.0114 21.2552 16.4357 21.3753 15.5617 21.4372C14.6819 21.4996 13.5625 21.5 12.0176 21.5C10.4728 21.5 9.35331 21.4996 8.47349 21.4372C7.59948 21.3753 7.02384 21.2552 6.55632 21.0474C5.19286 20.4413 4.1517 19.2837 3.69306 17.8638C3.53579 17.3769 3.47719 16.7918 3.50794 15.9162C3.5389 15.0347 3.65674 13.9214 3.81997 12.3852L4.05638 10.1602C4.30915 7.78113 4.42602 6.7801 4.79411 6.00289C5.39525 4.73358 6.47992 3.75806 7.80564 3.29439Z"/>
</symbol><symbol id="burger-menu" viewBox="0 0 24 24">
<path fill-rule="evenodd" clip-rule="evenodd" d="M4 5C3.44772 5 3 5.44772 3 6C3 6.55228 3.44772 7 4 7H20C20.5523 7 21 6.55228 21 6C21 5.44772 20.5523 5 20 5H4ZM7 12C7 11.4477 7.44772 11 8 11H20C20.5523 11 21 11.4477 21 12C21 12.5523 20.5523 13 20 13H8C7.44772 13 7 12.5523 7 12ZM13 18C13 17.4477 13.4477 17 14 17H20C20.5523 17 21 17.4477 21 18C21 18.5523 20.5523 19 20 19H14C13.4477 19 13 18.5523 13 18Z"/>
</symbol><symbol id="check" viewBox="0 0 14 14">
<path fill-rule="evenodd" clip-rule="evenodd" d="M14 2.296L5.71931 14L0 9.75604L2.42802 6.55305L4.80209 8.31471L10.6848 0L14 2.296Z"/>
</symbol><symbol id="clock" viewBox="0 0 20 21">
<path d="M7.20866 6.82496C6.9624 6.59549 6.57865 6.60226 6.34064 6.84027C6.10263 7.07828 6.09586 7.46203 6.32533 7.70829L9.47533 10.8583V14.7666C9.47533 15.1118 9.75515 15.3916 10.1003 15.3916C10.4455 15.3916 10.7253 15.1118 10.7253 14.7666V10.6C10.7252 10.4343 10.6592 10.2754 10.542 10.1583L7.20866 6.82496Z"/>
<path fill-rule="evenodd" clip-rule="evenodd" d="M8.33366 2.16663H11.867C13.6351 2.16663 15.3308 2.86901 16.581 4.11925C17.8313 5.36949 18.5337 7.06518 18.5337 8.83329V12.3666C18.5337 16.0485 15.5489 19.0333 11.867 19.0333H8.33366C4.65176 19.0333 1.66699 16.0485 1.66699 12.3666V8.83329C1.66699 5.15139 4.65176 2.16663 8.33366 2.16663ZM11.867 17.7833C14.8566 17.7787 17.2791 15.3563 17.2837 12.3666V8.83329C17.2791 5.84365 14.8566 3.42121 11.867 3.41663H8.33366C5.34402 3.42121 2.92158 5.84365 2.91699 8.83329V12.3666C2.92158 15.3563 5.34402 17.7787 8.33366 17.7833H11.867Z"/>
</symbol><symbol id="cross" viewBox="0 0 24 24">
<path fill-rule="evenodd" clip-rule="evenodd" d="M5.29289 5.29289C5.68342 4.90237 6.31658 4.90237 6.70711 5.29289L12 10.5858L17.2929 5.29289C17.6834 4.90237 18.3166 4.90237 18.7071 5.29289C19.0976 5.68342 19.0976 6.31658 18.7071 6.70711L13.4142 12L18.7071 17.2929C19.0976 17.6834 19.0976 18.3166 18.7071 18.7071C18.3166 19.0976 17.6834 19.0976 17.2929 18.7071L12 13.4142L6.70711 18.7071C6.31658 19.0976 5.68342 19.0976 5.29289 18.7071C4.90237 18.3166 4.90237 17.6834 5.29289 17.2929L10.5858 12L5.29289 6.70711C4.90237 6.31658 4.90237 5.68342 5.29289 5.29289Z"/>
</symbol><symbol id="delivery" viewBox="0 0 24 25">
<path fill-rule="evenodd" clip-rule="evenodd" d="M21.69 9.69L20.64 8.64C20.1396 8.13399 19.4615 7.84335 18.75 7.83H14.75V7.25C14.75 5.73122 13.5188 4.5 12 4.5H3.75C3.33579 4.5 3 4.83579 3 5.25C3 5.66421 3.33579 6 3.75 6H11.97C12.6604 6 13.22 6.55964 13.22 7.25V13.58C13.22 13.9942 13.5558 14.33 13.97 14.33C14.3842 14.33 14.72 13.9942 14.72 13.58V9.33H18.72C19.0514 9.32869 19.3691 9.46226 19.6 9.7L20.65 10.7C20.7932 10.8485 20.8964 11.0308 20.95 11.23H16.75C16.3358 11.23 16 11.5658 16 11.98C16 12.3942 16.3358 12.73 16.75 12.73H21V16.98C21.0136 17.3201 20.888 17.651 20.652 17.8964C20.4161 18.1417 20.0904 18.2803 19.75 18.28H18.64C18.3939 17.1262 17.3747 16.3015 16.195 16.3015C15.0153 16.3015 13.9961 17.1262 13.75 18.28H8.41C8.14085 17.0874 7.04272 16.2689 5.82293 16.3517C4.60315 16.4344 3.62567 17.3938 3.52011 18.6118C3.41454 19.8299 4.2124 20.9431 5.39975 21.2345C6.58711 21.5259 7.80968 20.9085 8.28 19.78H13.89C14.2798 20.7082 15.1883 21.312 16.195 21.312C17.2017 21.312 18.1102 20.7082 18.5 19.78H19.75C21.2688 19.78 22.5 18.5488 22.5 17.03V11.64C22.5014 10.9079 22.2097 10.2057 21.69 9.69ZM5.96983 19.6195C5.63411 19.6359 5.32239 19.4457 5.18334 19.1397C5.04429 18.8337 5.10607 18.4738 5.33922 18.2317C5.57237 17.9896 5.92967 17.9143 6.24071 18.0417C6.55174 18.1691 6.75353 18.4734 6.74983 18.8095C6.75013 19.2454 6.40543 19.6034 5.96983 19.6195ZM15.4316 19.111C15.5579 19.4186 15.8575 19.6195 16.1901 19.6195C16.6391 19.6195 17.0046 19.2585 17.0101 18.8095C17.0141 18.477 16.8169 18.1749 16.5109 18.0448C16.2048 17.9148 15.8505 17.9824 15.6139 18.2161C15.3773 18.4499 15.3053 18.8033 15.4316 19.111Z"/>
<path d="M10.5 10.1396C10.4946 9.72769 10.162 9.39503 9.75 9.38965H1.75C1.33579 9.38965 1 9.72543 1 10.1396C1 10.5539 1.33579 10.8896 1.75 10.8896H9.75C10.162 10.8843 10.4946 10.5516 10.5 10.1396Z"/>
<path d="M9.75 12.3896H4.75C4.33579 12.3896 4 12.7254 4 13.1396C4 13.5539 4.33579 13.8896 4.75 13.8896H9.75C10.1642 13.8896 10.5 13.5539 10.5 13.1396C10.5 12.7254 10.1642 12.3896 9.75 12.3896Z"/>
</symbol><symbol id="instagram" viewBox="0 0 136 39">
<path d="M6.99979 0.135545C4.21611 1.31428 1.15589 4.64016 0.189389 8.81803C-1.03465 14.1099 4.05907 16.3477 4.47685 15.6151C4.96857 14.7527 3.56414 14.4611 3.27501 11.7154C2.90142 8.16896 4.53248 4.20629 6.58544 2.46757C6.96705 2.14454 6.94874 2.59414 6.94874 3.42578C6.94874 4.9132 6.86747 18.2634 6.86747 21.0499C6.86747 24.8201 6.71341 26.0106 6.43664 27.1868C6.15621 28.379 5.7057 29.1845 6.04702 29.495C6.42863 29.8421 8.05763 29.0165 9.00078 27.6859C10.1317 26.0902 10.5275 24.1738 10.5987 22.0926C10.6845 19.5838 10.6808 15.6028 10.6845 13.3321C10.6879 11.2496 10.7191 5.15131 10.6483 1.48529C10.6312 0.586075 8.16408 -0.357331 6.99979 0.135545ZM135.389 19.9418C134.986 19.9418 134.802 20.3624 134.649 21.0708C134.12 23.5335 133.564 24.0893 132.848 24.0893C132.047 24.0893 131.327 22.8699 131.142 20.4291C130.997 18.5099 131.02 14.9762 131.206 11.4615C131.244 10.7393 131.047 10.0248 129.131 9.32109C128.306 9.01819 127.108 8.57275 126.511 10.0289C124.825 14.1429 124.165 17.4094 124.01 18.7357C124.002 18.8044 123.919 18.8183 123.904 18.658C123.805 17.5954 123.584 15.6642 123.556 11.6071C123.551 10.8155 123.385 10.1416 122.521 9.58998C121.96 9.23177 120.257 8.5989 119.643 9.3521C119.112 9.96808 118.497 11.6258 117.857 13.5908C117.338 15.1877 116.976 16.2681 116.976 16.2681C116.976 16.2681 116.982 11.9588 116.989 10.3242C116.991 9.70753 116.573 9.50181 116.447 9.46479C115.879 9.29818 114.76 9.01981 114.285 9.01981C113.699 9.01981 113.555 9.35094 113.555 9.8334C113.555 9.89658 113.463 15.507 113.463 19.4301C113.463 19.6005 113.463 19.7865 113.464 19.9841C113.14 21.7872 112.088 24.2349 110.945 24.2349C109.801 24.2349 109.261 23.2116 109.261 18.5346C109.261 15.8065 109.342 14.6199 109.381 12.6467C109.405 11.5101 109.449 10.637 109.447 10.4392C109.438 9.83179 108.399 9.52565 107.916 9.41226C107.43 9.29841 107.008 9.25399 106.678 9.27296C106.212 9.29957 105.882 9.60895 105.882 10.0345C105.882 10.2626 105.884 10.6963 105.884 10.6963C105.283 9.74177 104.317 9.07743 103.674 8.88491C101.942 8.36519 100.134 8.8259 98.7712 10.7539C97.6877 12.286 97.0346 14.0215 96.7775 16.5145C96.5896 18.337 96.6509 20.1854 96.9849 21.7485C96.5814 23.5122 95.8321 24.2349 95.0116 24.2349C93.8206 24.2349 92.9571 22.2699 93.0573 18.8711C93.1235 16.6356 93.566 15.0669 94.0497 12.7974C94.256 11.8297 94.0884 11.3234 93.6681 10.8379C93.2826 10.3925 92.4615 10.1652 91.2805 10.445C90.4394 10.6442 89.2367 10.859 88.1367 11.0237C88.1367 11.0237 88.2031 10.756 88.2576 10.2839C88.5437 7.80845 85.8825 8.0093 85.0334 8.79998C84.5266 9.27204 84.1816 9.82878 84.0507 10.8298C83.843 12.4181 85.1245 13.1676 85.1245 13.1676C84.704 15.1137 83.6732 17.6553 82.6092 19.4931C82.0391 20.4777 81.6028 21.2073 81.0401 21.9829C81.038 21.6946 81.0365 21.4063 81.0356 21.118C81.0225 17.0271 81.0765 13.8074 81.1001 12.647C81.1235 11.5103 81.1686 10.6607 81.1658 10.4628C81.1596 10.0185 80.903 9.85053 80.3692 9.63834C79.8971 9.45044 79.339 9.3204 78.7601 9.27504C78.0296 9.21766 77.5891 9.60918 77.6008 10.0724C77.6031 10.1599 77.6031 10.697 77.6031 10.697C77.0022 9.74247 76.0355 9.07812 75.3927 8.8856C73.6606 8.36588 71.8533 8.8266 70.4901 10.7546C69.4068 12.2867 68.6974 14.4366 68.4964 16.496C68.3092 18.4155 68.3437 20.0466 68.599 21.4206C68.3236 22.7965 67.5317 24.2353 66.6364 24.2353C65.4918 24.2353 64.8405 23.2121 64.8405 18.5351C64.8405 15.8069 64.9216 14.6206 64.9612 12.6472C64.9845 11.5106 65.0292 10.6375 65.0264 10.4397C65.018 9.83225 63.9789 9.52611 63.4954 9.41273C62.9895 9.29425 62.5527 9.25098 62.2173 9.27597C61.7746 9.30929 61.4637 9.70961 61.4637 10.0083V10.697C60.8628 9.74247 59.8961 9.07812 59.2533 8.8856C57.5213 8.36588 55.724 8.834 54.3507 10.7546C53.4552 12.0069 52.7302 13.3953 52.357 16.4687C52.2492 17.3568 52.2016 18.1887 52.2078 18.966C51.8507 21.1735 50.2736 23.7177 48.9832 23.7177C48.2282 23.7177 47.5092 22.2377 47.5092 19.083C47.5092 14.8809 47.7667 8.8981 47.81 8.32146C47.81 8.32146 49.4401 8.29346 49.7558 8.28975C50.5692 8.28073 51.3056 8.30017 52.3884 8.24417C52.9316 8.21617 53.4549 6.24559 52.8943 6.0017C52.6404 5.89132 50.8443 5.7946 50.1326 5.77932C49.534 5.76567 47.8672 5.64095 47.8672 5.64095C47.8672 5.64095 48.0167 1.66971 48.0517 1.25019C48.0812 0.900313 47.6337 0.720517 47.3771 0.611066C46.7528 0.344497 46.1947 0.216534 45.5329 0.0786211C44.6186 -0.11205 44.2036 0.0744559 44.1227 0.854728C44.0007 2.03832 43.9375 5.50604 43.9375 5.50604C43.2664 5.50604 40.9746 5.37345 40.3034 5.37345C39.6796 5.37345 39.0068 8.08427 39.8689 8.11759C40.8609 8.15647 42.5894 8.19002 43.7354 8.22496C43.7354 8.22496 43.6844 14.3065 43.6844 16.1841C43.6844 16.3838 43.6851 16.5761 43.6864 16.7628C43.0557 20.0857 40.8341 21.8806 40.8341 21.8806C41.3111 19.6824 40.3366 18.0316 38.5815 16.6342C37.9346 16.1191 36.6581 15.1444 35.2296 14.0761C35.2296 14.0761 36.0569 13.2518 36.7906 11.5934C37.3105 10.4188 37.333 9.07465 36.0567 8.77823C33.9486 8.28837 32.2099 9.85331 31.6914 11.5242C31.2897 12.8189 31.5039 13.7792 32.291 14.7772C32.3484 14.8501 32.4107 14.9244 32.475 14.9993C31.9991 15.9266 31.3453 17.1749 30.7915 18.1431C29.2543 20.831 28.0935 22.9571 27.2158 22.9571C26.5144 22.9571 26.524 20.7986 26.524 18.7776C26.524 17.0354 26.6513 14.416 26.7529 11.704C26.7866 10.8071 26.3427 10.2962 25.5989 9.8334C25.147 9.55226 24.1826 8.99945 23.6243 8.99945C22.7882 8.99945 20.3761 9.11445 18.097 15.7785C17.8097 16.6184 17.2454 18.1489 17.2454 18.1489L17.2939 10.1351C17.2939 9.94725 17.1948 9.76537 16.9681 9.64111C16.584 9.43054 15.5582 8.99945 14.6462 8.99945C14.2117 8.99945 13.9947 9.20377 13.9947 9.61103L13.915 22.1488C13.915 23.1015 13.9395 24.2129 14.0329 24.6988C14.1256 25.1857 14.276 25.5814 14.4624 25.8169C14.6483 26.052 14.8634 26.2314 15.2183 26.3054C15.5484 26.3741 17.3562 26.6088 17.4503 25.9104C17.5629 25.0735 17.567 24.1682 18.5163 20.7921C19.9943 15.536 21.9211 12.9714 22.8272 12.0606C22.9853 11.9014 23.1662 11.8919 23.1575 12.1525C23.119 13.3046 22.983 16.1843 22.8912 18.6307C22.6458 25.1774 23.8241 26.3908 25.5078 26.3908C26.796 26.3908 28.6118 25.0968 30.5583 21.8221C31.7715 19.7812 32.9498 17.7801 33.7966 16.3378C34.3865 16.8899 35.0483 17.4839 35.7101 18.1186C37.2476 19.5935 37.7523 20.9951 37.4174 22.3247C37.1613 23.3412 36.1966 24.3888 34.4797 23.3706C33.9793 23.0737 33.7654 22.8442 33.2625 22.5091C32.9922 22.3293 32.5796 22.2754 32.3322 22.464C31.6891 22.9539 31.3215 23.5772 31.1116 24.3487C30.9074 25.0994 31.6511 25.4962 32.4221 25.8433C33.086 26.1421 34.5129 26.4128 35.4228 26.4436C38.9681 26.5634 41.8086 24.7132 43.7855 19.9404C44.1397 24.0623 45.6458 26.3947 48.263 26.3947C50.0127 26.3947 51.7669 24.1088 52.534 21.8598C52.7542 22.7766 53.0802 23.5735 53.5012 24.2478C55.5177 27.4774 59.4298 26.7823 61.3948 24.04C62.0022 23.1927 62.0949 22.8879 62.0949 22.8879C62.3815 25.4775 64.4445 26.3825 65.6257 26.3825C66.9487 26.3825 68.3147 25.7503 69.272 23.5717C69.3817 23.8042 69.5047 24.03 69.6403 24.2481C71.6569 27.4777 75.5689 26.7826 77.534 24.0403C77.6265 23.9114 77.707 23.7948 77.7771 23.6899L77.8348 25.3912L76.0259 27.0683C72.9933 29.8777 70.6895 32.0087 70.5201 34.4902C70.3047 37.6543 72.8418 38.8303 74.764 38.9844C76.8019 39.148 78.5502 38.009 79.6233 36.4149C80.5676 35.0122 81.1855 31.9927 81.1404 29.0102C81.1223 27.816 81.0926 26.2976 81.069 24.6699C82.1335 23.4204 83.333 21.8408 84.4371 19.9924C85.6408 17.9777 86.9305 15.2724 87.5907 13.1669C87.5907 13.1669 88.7113 13.1766 89.9072 13.0975C90.2897 13.0723 90.3993 13.1509 90.3288 13.4346C90.2434 13.7769 88.818 19.3348 90.1189 23.0372C91.0094 25.5717 93.0168 26.3871 94.207 26.3871C95.6002 26.3871 96.9327 25.3236 97.647 23.7443C97.7331 23.9204 97.8232 24.0907 97.9212 24.2481C99.9378 27.4777 103.836 26.7786 105.815 24.0403C106.261 23.4224 106.515 22.8881 106.515 22.8881C106.94 25.5682 109.001 26.3961 110.182 26.3961C111.413 26.3961 112.58 25.8864 113.527 23.6207C113.567 24.6185 113.629 25.434 113.728 25.6911C113.787 25.8484 114.137 26.0458 114.391 26.1411C115.517 26.5627 116.665 26.3635 117.089 26.2767C117.383 26.2166 117.613 25.978 117.644 25.362C117.726 23.7445 117.676 21.027 118.161 19.0071C118.975 15.6176 119.735 14.3026 120.095 13.6519C120.297 13.2872 120.524 13.2271 120.533 13.613C120.549 14.394 120.588 16.6874 120.904 19.7687C121.135 22.0348 121.444 23.3743 121.682 23.7982C122.361 25.0103 123.199 25.0677 123.882 25.0677C124.316 25.0677 125.224 24.9467 125.143 24.1752C125.104 23.7992 125.173 21.4752 125.976 18.1359C126.5 15.9553 127.374 13.9851 127.689 13.2646C127.805 12.9989 127.86 13.2083 127.858 13.2491C127.791 14.7508 127.642 19.6629 128.248 22.3495C129.068 25.9891 131.441 26.3961 132.268 26.3961C134.034 26.3961 135.478 25.0385 135.964 21.4662C136.083 20.6056 135.909 19.9418 135.389 19.9418ZM61.4276 17.7333C61.3264 19.6238 60.9615 21.2043 60.3759 22.3522C59.3165 24.4299 57.2202 25.0887 56.2961 22.0866C55.6297 19.9219 55.8565 16.9699 56.1338 15.3756C56.5451 13.0091 57.5753 11.3315 59.1835 11.4904C60.8354 11.6538 61.6384 13.7996 61.4276 17.7333ZM77.5667 17.7606C77.4724 19.5458 77.0146 21.3392 76.5151 22.3525C75.484 24.4445 73.3285 25.0984 72.4352 22.0868C71.8245 20.029 71.9707 17.3658 72.2729 15.688C72.6651 13.5105 73.6155 11.4907 75.3226 11.4907C76.9823 11.4904 77.8007 13.331 77.5667 17.7606ZM77.9879 29.9402C77.9655 33.1969 77.4587 36.0523 76.3713 36.8817C74.8291 38.0576 72.7562 37.1755 73.1854 34.7991C73.5652 32.6961 75.3613 30.5486 77.9925 27.9245C77.9925 27.9245 77.9978 28.5229 77.9879 29.9402ZM105.848 17.7796C105.758 19.7395 105.329 21.2716 104.796 22.3522C103.765 24.4443 101.625 25.0938 100.717 22.0866C100.221 20.4474 100.198 17.7095 100.554 15.4219C100.917 13.0917 101.928 11.3315 103.604 11.4904C105.257 11.6471 106.03 13.7996 105.848 17.7796Z"/>
</symbol><symbol id="minus" viewBox="0 0 24 25">
<path fill-rule="evenodd" clip-rule="evenodd" d="M11.2811 2.5H12.3855C17.5267 2.5 21.6944 6.72643 21.6944 11.94V13.06C21.6944 18.2736 17.5267 22.5 12.3855 22.5H11.2811C6.1399 22.5 1.97217 18.2736 1.97217 13.06V11.94C1.97217 6.72643 6.1399 2.5 11.2811 2.5ZM12.3855 21C16.6963 20.9673 20.183 17.4315 20.2152 13.06V11.94C20.183 7.56846 16.6963 4.03267 12.3855 4H11.2811C6.97023 4.03267 3.48355 7.56846 3.45133 11.94V13.06C3.48355 17.4315 6.97023 20.9673 11.2811 21H12.3855Z"/>
<path d="M7.15166 12.4961C7.15166 12.0819 7.48278 11.7461 7.89124 11.7461H15.7759C16.1843 11.7461 16.5154 12.0819 16.5154 12.4961C16.5154 12.9103 16.1843 13.2461 15.7759 13.2461H7.89124C7.48278 13.2461 7.15166 12.9103 7.15166 12.4961Z"/>
</symbol><symbol id="plus" viewBox="0 0 24 25">
<path fill-rule="evenodd" clip-rule="evenodd" d="M11.6146 2.5H12.719C17.8602 2.5 22.0279 6.72643 22.0279 11.94V13.06C22.0279 18.2736 17.8602 22.5 12.719 22.5H11.6146C6.4734 22.5 2.30566 18.2736 2.30566 13.06V11.94C2.30566 6.72643 6.4734 2.5 11.6146 2.5ZM12.719 21C17.0298 20.9673 20.5165 17.4315 20.5487 13.06V11.94C20.5165 7.56846 17.0298 4.03267 12.719 4H11.6146C7.30373 4.03267 3.81704 7.56846 3.78483 11.94V13.06C3.81704 17.4315 7.30373 20.9673 11.6146 21H12.719Z"/>
<path d="M16.1112 11.75H12.9064V8.5C12.9064 8.08579 12.5752 7.75 12.1668 7.75C11.7583 7.75 11.4272 8.08579 11.4272 8.5V11.75H8.22233C7.81387 11.75 7.48275 12.0858 7.48275 12.5C7.48275 12.9142 7.81387 13.25 8.22233 13.25H11.4272V16.5C11.4272 16.9142 11.7583 17.25 12.1668 17.25C12.5752 17.25 12.9064 16.9142 12.9064 16.5V13.25H16.1112C16.5197 13.25 16.8508 12.9142 16.8508 12.5C16.8508 12.0858 16.5197 11.75 16.1112 11.75Z"/>
</symbol><symbol id="trash" viewBox="0 0 24 24">
<path d="M10.5 9.75021C10.5 9.336 10.1642 9.00021 9.75 9.00021C9.33579 9.00021 9 9.336 9 9.75021V16.7502C9 17.1644 9.33579 17.5002 9.75 17.5002C10.1642 17.5002 10.5 17.1644 10.5 16.7502V9.75021Z"/>
<path d="M13.75 9.00021C14.1642 9.00021 14.5 9.336 14.5 9.75021V13.7502C14.5 14.1644 14.1642 14.5002 13.75 14.5002C13.3358 14.5002 13 14.1644 13 13.7502V9.75021C13 9.336 13.3358 9.00021 13.75 9.00021Z"/>
<path fill-rule="evenodd" clip-rule="evenodd" d="M10.371 1.00011C9.85842 0.99934 9.40851 0.998668 9.00762 1.15634C8.65709 1.2942 8.34677 1.51786 8.10513 1.80682C7.82878 2.13727 7.68715 2.56431 7.52577 3.05085L7.12617 4.25H1.75C1.33579 4.25 1 4.58579 1 5C1 5.41421 1.33579 5.75 1.75 5.75H3.04282L3.64881 16.0517C3.70958 17.0849 3.7578 17.9049 3.84968 18.5652C3.94376 19.2413 4.09057 19.8113 4.38159 20.3287C4.85467 21.1697 5.5727 21.8468 6.4401 22.2696C6.97368 22.5298 7.55125 22.6429 8.23175 22.6971C8.89635 22.75 9.7177 22.75 10.7527 22.75H12.7473C13.7823 22.75 14.6037 22.75 15.2682 22.6971C15.9487 22.6429 16.5263 22.5298 17.0599 22.2696C17.9273 21.8468 18.6453 21.1697 19.1184 20.3287C19.4094 19.8113 19.5562 19.2413 19.6503 18.5652C19.7422 17.9049 19.7904 17.0851 19.8512 16.052L20.4572 5.75H21.75C22.1642 5.75 22.5 5.41421 22.5 5C22.5 4.58579 22.1642 4.25 21.75 4.25H16.3738L15.9742 3.05084C15.8129 2.5643 15.6712 2.13727 15.3949 1.80682C15.1532 1.51786 14.8429 1.2942 14.4924 1.15634C14.0915 0.998668 13.6416 0.99934 13.129 1.00011H10.371ZM14.7927 4.25L14.5855 3.62844C14.3686 2.97761 14.3133 2.85174 14.2442 2.76908C14.1637 2.67276 14.0602 2.59821 13.9434 2.55225C13.8431 2.51282 13.7062 2.50021 13.0202 2.50021H10.4798C9.79379 2.50021 9.65691 2.51282 9.55663 2.55225C9.43979 2.59821 9.33635 2.67276 9.2558 2.76908C9.18668 2.85174 9.13144 2.97761 8.91449 3.62844L8.70731 4.25H14.7927ZM5.14434 15.9318L4.54541 5.75H18.9546L18.3557 15.9318C18.2926 17.0039 18.2473 17.7642 18.1646 18.3585C18.0832 18.9437 17.9726 19.3061 17.811 19.5933C17.4873 20.1688 16.9961 20.632 16.4026 20.9213C16.1064 21.0657 15.7381 21.1549 15.1491 21.2018C14.5511 21.2494 13.7894 21.25 12.7154 21.25H10.7846C9.71057 21.25 8.94893 21.2494 8.35087 21.2018C7.76191 21.1549 7.3936 21.0657 7.09742 20.9213C6.50394 20.632 6.01265 20.1688 5.68897 19.5933C5.52743 19.3061 5.41679 18.9437 5.33537 18.3585C5.25269 17.7642 5.20741 17.0039 5.14434 15.9318Z"/>
</symbol></svg>