<svg width="150" height="91" viewBox="0 0 150 91" fill="none" xmlns="http://www.w3.org/2000/svg">
<rect width="150" height="91" fill="#FFFCF4"/>
<path d="M57.3173 67.8171V64.8332C57.3345 64.5823 57.299 64.3305 57.2134 64.0946C57.1278 63.8587 56.994 63.6442 56.8209 63.4654C56.6478 63.2866 56.4393 63.1475 56.2095 63.0575C55.9796 62.9676 55.7337 62.9287 55.488 62.9435C55.1664 62.9221 54.8451 62.9893 54.5576 63.1379C54.2701 63.2866 54.0268 63.5114 53.8532 63.7889C53.695 63.5197 53.4687 63.2991 53.1981 63.1503C52.9275 63.0016 52.6227 62.9301 52.3158 62.9435C52.0482 62.9298 51.7817 62.9877 51.5428 63.1116C51.3038 63.2354 51.1007 63.4209 50.9534 63.6497V63.0629H49.9414V67.8171H50.9631V65.1813C50.941 65.0187 50.9545 64.8531 51.0024 64.6964C51.0504 64.5397 51.1317 64.3958 51.2406 64.275C51.3494 64.1542 51.4831 64.0596 51.632 63.9979C51.7809 63.9363 51.9413 63.909 52.1017 63.9182C52.7731 63.9182 53.1137 64.3658 53.1137 65.1714V67.8171H54.1354V65.1813C54.115 65.019 54.1296 64.8541 54.1782 64.6981C54.2267 64.5421 54.3081 64.399 54.4166 64.2786C54.5251 64.1582 54.6581 64.0636 54.8062 64.0013C54.9543 63.9391 55.114 63.9107 55.2739 63.9182C55.9648 63.9182 56.2956 64.3658 56.2956 65.1714V67.8171H57.3173ZM72.4389 63.0629H70.7847V61.6207H69.763V63.0629H68.8191V64.0078H69.763V66.176C69.763 67.2799 70.1814 67.9365 71.3783 67.9365C71.8254 67.9378 72.2639 67.8103 72.6433 67.5684L72.3514 66.6832C72.08 66.8487 71.772 66.9411 71.4562 66.9518C70.9501 66.9518 70.7847 66.6334 70.7847 66.1561V64.0078H72.4389V63.0629ZM81.0702 62.9435C80.8234 62.9361 80.5793 62.9969 80.3635 63.1194C80.1477 63.2419 79.9683 63.4217 79.8441 63.6398V63.0629H78.8418V67.8171H79.8538V65.1515C79.8538 64.3658 80.1846 63.9282 80.8464 63.9282C81.0628 63.9252 81.2778 63.9657 81.4789 64.0475L81.7902 63.0728C81.5591 62.9883 81.3156 62.9446 81.0702 62.9435ZM68.0212 63.4408C67.4484 63.0927 66.7898 62.9201 66.1237 62.9435C64.9463 62.9435 64.1873 63.5204 64.1873 64.4652C64.1873 65.2411 64.7517 65.7185 65.7928 65.8677L66.2696 65.9372C66.8243 66.0167 67.087 66.166 67.087 66.4345C67.087 66.8025 66.7172 67.0115 66.0264 67.0115C65.4707 67.0278 64.9257 66.8526 64.4792 66.5141L64.0024 67.3197C64.5919 67.7405 65.2979 67.9567 66.0166 67.9365C67.3595 67.9365 68.1379 67.2899 68.1379 66.3848C68.1379 65.5493 67.5249 65.1117 66.5129 64.9625L66.0362 64.8929C65.5982 64.8332 65.248 64.7438 65.248 64.4255C65.248 64.0774 65.5787 63.8685 66.1334 63.8685C66.6428 63.8764 67.1418 64.0167 67.5833 64.2763L68.0212 63.4408ZM95.1311 62.9435C94.8844 62.9361 94.6402 62.9969 94.4244 63.1194C94.2086 63.2419 94.0292 63.4217 93.905 63.6398V63.0629H92.9028V67.8171H93.9147V65.1515C93.9147 64.3658 94.2456 63.9282 94.9072 63.9282C95.1237 63.9251 95.3387 63.9657 95.5398 64.0475L95.8512 63.0728C95.6201 62.9883 95.3766 62.9446 95.1311 62.9435ZM82.0918 65.4399C82.0784 65.7748 82.1337 66.1089 82.2542 66.4207C82.3746 66.7325 82.5576 67.015 82.7913 67.2502C83.0251 67.4853 83.3043 67.6679 83.6112 67.7861C83.9181 67.9043 84.2458 67.9555 84.5733 67.9365C85.1808 67.9677 85.7778 67.7654 86.2469 67.3695L85.7604 66.534C85.4105 66.8066 84.9839 66.9566 84.544 66.9617C84.1648 66.9381 83.8086 66.7676 83.5482 66.4848C83.2879 66.202 83.1429 65.8283 83.1429 65.44C83.1429 65.0516 83.2879 64.6779 83.5482 64.3951C83.8086 64.1123 84.1648 63.9418 84.544 63.9182C84.9839 63.9233 85.4105 64.0733 85.7604 64.346L86.2469 63.5104C85.7778 63.1146 85.1808 62.9124 84.5733 62.9435C84.2459 62.9245 83.9182 62.9757 83.6113 63.0939C83.3044 63.2121 83.0251 63.3946 82.7914 63.6297C82.5577 63.8649 82.3747 64.1474 82.2542 64.4591C82.1337 64.7709 82.0784 65.105 82.0918 65.4399ZM91.5696 65.4399V63.0629H90.5576V63.6398C90.3849 63.4122 90.1614 63.2303 89.9057 63.1092C89.6501 62.988 89.3698 62.9312 89.0883 62.9435C88.4612 62.975 87.87 63.2517 87.4371 63.7164C87.0041 64.1812 86.7627 64.7983 86.7627 65.44C86.7627 66.0817 87.0041 66.6988 87.4371 67.1636C87.87 67.6283 88.4612 67.905 89.0883 67.9365C89.3698 67.9487 89.6501 67.8919 89.9057 67.7708C90.1614 67.6496 90.3849 67.4677 90.5576 67.2401V67.8171H91.5696V65.4399ZM87.8038 65.4399C87.8195 65.1593 87.9152 64.8896 88.0791 64.664C88.2429 64.4384 88.4678 64.2667 88.726 64.1702C88.9842 64.0736 89.2644 64.0564 89.532 64.1207C89.7997 64.185 90.043 64.3279 90.2322 64.5319C90.4213 64.7358 90.5479 64.9919 90.5963 65.2685C90.6447 65.5451 90.6129 65.8301 90.5047 66.0885C90.3966 66.3468 90.2168 66.5672 89.9876 66.7223C89.7584 66.8775 89.4898 66.9607 89.2148 66.9617C89.0221 66.9643 88.831 66.9262 88.6534 66.8496C88.4759 66.773 88.3158 66.6596 88.1832 66.5167C88.0506 66.3737 87.9485 66.2042 87.8832 66.0189C87.8179 65.8336 87.7909 65.6364 87.8038 65.4399ZM75.5918 62.9435C74.9607 62.9775 74.367 63.26 73.9352 63.7317C73.5034 64.2033 73.2672 64.8276 73.276 65.4735C73.2848 66.1194 73.538 66.7367 73.9825 67.1959C74.4269 67.6551 75.0281 67.9205 75.6599 67.9365C76.3541 67.9614 77.0331 67.7241 77.5671 67.27L77.0708 66.5042C76.6865 66.819 76.2106 66.9939 75.7182 67.0015C75.3838 67.0302 75.0516 66.9248 74.7919 66.7076C74.5322 66.4904 74.3654 66.1784 74.3267 65.8377H77.7812C77.7909 65.7085 77.8006 65.5792 77.8006 65.4399C77.7909 63.958 76.8957 62.9435 75.5918 62.9435ZM75.5723 63.8685C75.8779 63.8624 76.1735 63.9804 76.3942 64.1967C76.6149 64.413 76.7427 64.7098 76.7497 65.0222H74.3365C74.3542 64.7031 74.4935 64.4037 74.7244 64.1881C74.9553 63.9724 75.2597 63.8578 75.5723 63.8685ZM100.96 65.4399V61.1533H99.9478V63.6398C99.7751 63.4122 99.5515 63.2303 99.2959 63.1092C99.0403 62.988 98.76 62.9313 98.4785 62.9435C97.8514 62.9749 97.2602 63.2517 96.8272 63.7164C96.3943 64.1811 96.1528 64.7983 96.1528 65.44C96.1528 66.0817 96.3943 66.6989 96.8272 67.1636C97.2602 67.6283 97.8514 67.9051 98.4785 67.9365C98.76 67.9487 99.0403 67.8919 99.2959 67.7708C99.5515 67.6496 99.7751 67.4677 99.9478 67.2401V67.8171H100.96V65.4399ZM102.647 67.1281C102.71 67.1277 102.772 67.1403 102.83 67.1652C102.886 67.1889 102.936 67.2233 102.979 67.2665C103.022 67.3096 103.056 67.3607 103.08 67.4171C103.105 67.475 103.117 67.5373 103.117 67.6004C103.117 67.6634 103.105 67.7258 103.08 67.7837C103.056 67.8398 103.022 67.8907 102.979 67.9336C102.936 67.9768 102.885 68.0113 102.83 68.0355C102.772 68.0608 102.71 68.0736 102.647 68.0732C102.554 68.0741 102.463 68.0472 102.386 67.9957C102.308 67.9442 102.247 67.8705 102.21 67.7837C102.186 67.7257 102.173 67.6634 102.173 67.6004C102.173 67.5373 102.186 67.475 102.21 67.4171C102.234 67.3608 102.268 67.3097 102.31 67.2665C102.353 67.223 102.404 67.1886 102.46 67.1652C102.52 67.1402 102.583 67.1276 102.647 67.1281ZM102.647 67.9689C102.695 67.9693 102.742 67.9595 102.786 67.94C102.829 67.9212 102.867 67.8945 102.899 67.8612C102.967 67.7919 103.004 67.6982 103.004 67.6006C103.004 67.503 102.967 67.4093 102.899 67.34C102.867 67.3068 102.829 67.2803 102.786 67.2619C102.742 67.2427 102.695 67.2331 102.647 67.2335C102.598 67.2331 102.55 67.2428 102.505 67.2619C102.462 67.28 102.423 67.3065 102.39 67.34C102.322 67.4093 102.285 67.503 102.285 67.6006C102.285 67.6982 102.322 67.7919 102.39 67.8612C102.423 67.8948 102.462 67.9215 102.505 67.94C102.55 67.9594 102.598 67.9693 102.647 67.9689ZM102.674 67.3794C102.72 67.3763 102.765 67.3897 102.802 67.4171C102.816 67.4294 102.828 67.4451 102.836 67.4629C102.843 67.4807 102.847 67.5001 102.846 67.5196C102.847 67.5362 102.844 67.5528 102.838 67.5683C102.832 67.5837 102.822 67.5977 102.811 67.6092C102.782 67.6348 102.747 67.6501 102.709 67.6527L102.85 67.8183H102.74L102.609 67.6539H102.568V67.8183H102.476V67.3794H102.674ZM102.568 67.4617V67.5787H102.673C102.693 67.5797 102.713 67.5746 102.731 67.5641C102.738 67.5592 102.744 67.5526 102.747 67.5448C102.751 67.537 102.753 67.5283 102.752 67.5196C102.753 67.511 102.751 67.5025 102.747 67.4949C102.743 67.4872 102.738 67.4807 102.731 67.476C102.713 67.4656 102.693 67.4606 102.673 67.4617H102.568ZM97.194 65.4399C97.2098 65.1593 97.3055 64.8897 97.4693 64.6641C97.6332 64.4385 97.8581 64.2668 98.1163 64.1703C98.3745 64.0738 98.6547 64.0566 98.9223 64.1209C99.1899 64.1852 99.4332 64.3281 99.6223 64.532C99.8114 64.736 99.938 64.992 99.9864 65.2686C100.035 65.5452 100.003 65.8303 99.8948 66.0886C99.7867 66.3469 99.6069 66.5672 99.3777 66.7224C99.1485 66.8775 98.8799 66.9607 98.605 66.9617C98.4123 66.9643 98.2211 66.9262 98.0436 66.8496C97.8661 66.773 97.706 66.6596 97.5734 66.5166C97.4408 66.3737 97.3387 66.2042 97.2734 66.0189C97.2081 65.8335 97.1811 65.6364 97.194 65.4399ZM63.0196 65.4399V63.0629H62.0076V63.6398C61.8348 63.4122 61.6113 63.2303 61.3556 63.1092C61.1 62.988 60.8197 62.9312 60.5382 62.9435C59.9111 62.975 59.3199 63.2517 58.887 63.7164C58.4541 64.1812 58.2126 64.7983 58.2126 65.44C58.2126 66.0817 58.4541 66.6988 58.887 67.1636C59.3199 67.6283 59.9111 67.905 60.5382 67.9365C60.8197 67.9487 61.1 67.8919 61.3556 67.7708C61.6113 67.6496 61.8348 67.4677 62.0076 67.2401V67.8171H63.0196V65.4399ZM59.2538 65.4399C59.2695 65.1593 59.3652 64.8897 59.5291 64.6641C59.693 64.4385 59.9179 64.2668 60.1761 64.1703C60.4342 64.0738 60.7144 64.0566 60.982 64.1209C61.2497 64.1852 61.493 64.3281 61.6821 64.532C61.8712 64.736 61.9978 64.9921 62.0462 65.2686C62.0946 65.5452 62.0628 65.8303 61.9546 66.0886C61.8464 66.3469 61.6666 66.5672 61.4374 66.7224C61.2082 66.8775 60.9396 66.9607 60.6647 66.9617C60.472 66.9643 60.2809 66.9262 60.1033 66.8496C59.9258 66.773 59.7657 66.6596 59.6332 66.5166C59.5006 66.3737 59.3985 66.2042 59.3332 66.0189C59.2679 65.8335 59.2409 65.6364 59.2538 65.4399Z" fill="#231F20"/>
<path d="M82.996 26.8135H67.668V54.9676H82.996V26.8135Z" fill="#FF5F00"/>
<path d="M68.6525 40.9052C68.6501 38.1938 69.2512 35.5173 70.4104 33.0784C71.5696 30.6395 73.2565 28.5022 75.3433 26.8281C72.759 24.7519 69.6555 23.4608 66.3872 23.1023C63.119 22.7437 59.8181 23.3323 56.8616 24.8006C53.9052 26.269 51.4126 28.5579 49.6687 31.4058C47.9248 34.2536 47 37.5455 47 40.9052C47 44.2649 47.9248 47.5568 49.6687 50.4047C51.4126 53.2526 53.9052 55.5415 56.8616 57.0098C59.8181 58.4782 63.119 59.0667 66.3872 58.7082C69.6555 58.3497 72.759 57.0585 75.3433 54.9823C73.2565 53.3083 71.5696 51.1709 70.4104 48.732C69.2512 46.2931 68.6501 43.6167 68.6525 40.9052Z" fill="#EB001B"/>
<path d="M103.672 40.9052C103.673 44.2649 102.748 47.5568 101.004 50.4046C99.2603 53.2525 96.7678 55.5414 93.8114 57.0098C90.855 58.4782 87.5541 59.0667 84.2859 58.7082C81.0178 58.3497 77.9142 57.0585 75.3301 54.9823C77.4151 53.3066 79.1006 51.1689 80.2596 48.7304C81.4186 46.2919 82.0208 43.6162 82.0208 40.9052C82.0208 38.1942 81.4186 35.5186 80.2596 33.0801C79.1006 30.6416 77.4151 28.5039 75.3301 26.8281C77.9142 24.7519 81.0178 23.4608 84.2859 23.1023C87.5541 22.7437 90.855 23.3323 93.8114 24.8006C96.7678 26.269 99.2603 28.558 101.004 31.4058C102.748 34.2537 103.673 37.5456 103.672 40.9052Z" fill="#F79E1B"/>
<path d="M102.026 51.9882V51.4118H102.253V51.2944H101.674V51.4118H101.901V51.9882H102.026ZM103.15 51.9882V51.2932H102.972L102.768 51.7712L102.564 51.2932H102.386V51.9882H102.512V51.464L102.703 51.9159H102.833L103.025 51.4628V51.9882H103.15Z" fill="#F79E1B"/>
</svg>
