<svg width="150" height="91" viewBox="0 0 150 91" fill="none" xmlns="http://www.w3.org/2000/svg">
<rect width="150" height="91" fill="#FFFCF4"/>
<path d="M59.1662 58.4737V56.0372C59.1802 55.8323 59.1512 55.6266 59.0813 55.434C59.0113 55.2414 58.9019 55.0663 58.7604 54.9202C58.6189 54.7742 58.4485 54.6607 58.2606 54.5872C58.0727 54.5137 57.8716 54.482 57.6708 54.4941C57.4079 54.4766 57.1453 54.5314 56.9103 54.6528C56.6752 54.7743 56.4764 54.9578 56.3345 55.1844C56.2051 54.9646 56.0201 54.7845 55.7989 54.663C55.5777 54.5415 55.3286 54.4831 55.0776 54.4941C54.8589 54.4829 54.6411 54.5302 54.4458 54.6313C54.2505 54.7324 54.0844 54.8839 53.964 55.0707V54.5916H53.1367V58.4737H53.9719V56.3214C53.9539 56.1886 53.9649 56.0534 54.0041 55.9254C54.0433 55.7975 54.1098 55.68 54.1987 55.5813C54.2877 55.4827 54.397 55.4055 54.5187 55.3551C54.6404 55.3047 54.7715 55.2825 54.9026 55.29C55.4515 55.29 55.7299 55.6555 55.7299 56.3133V58.4737H56.5651V56.3214C56.5484 56.1889 56.5604 56.0542 56.6001 55.9268C56.6398 55.7995 56.7063 55.6826 56.795 55.5843C56.8837 55.486 56.9924 55.4087 57.1135 55.3578C57.2346 55.307 57.365 55.2839 57.4958 55.29C58.0605 55.29 58.331 55.6555 58.331 56.3133V58.4737H59.1662ZM71.5274 54.5916H70.1752V53.4139H69.34V54.5916H68.5684V55.3631H69.34V57.1336C69.34 58.0351 69.682 58.5712 70.6604 58.5712C71.0259 58.5723 71.3843 58.4682 71.6945 58.2707L71.4559 57.5478C71.234 57.683 70.9822 57.7584 70.7241 57.7671C70.3104 57.7671 70.1752 57.5072 70.1752 57.1174V55.3631H71.5274V54.5916ZM78.5831 54.4941C78.3814 54.488 78.1818 54.5376 78.0054 54.6377C77.829 54.7377 77.6823 54.8845 77.5808 55.0626V54.5916H76.7615V58.4737H77.5887V56.2971C77.5887 55.6555 77.8592 55.2981 78.4002 55.2981C78.5771 55.2957 78.7528 55.3288 78.9172 55.3956L79.1717 54.5997C78.9828 54.5306 78.7837 54.4949 78.5831 54.4941ZM67.9162 54.9002C67.4479 54.6159 66.9095 54.4749 66.365 54.4941C65.4025 54.4941 64.7821 54.9651 64.7821 55.7367C64.7821 56.3702 65.2434 56.7601 66.0945 56.8819L66.4843 56.9387C66.9377 57.0036 67.1525 57.1255 67.1525 57.3448C67.1525 57.6453 66.8502 57.8159 66.2855 57.8159C65.8312 57.8292 65.3857 57.6862 65.0207 57.4097L64.6309 58.0676C65.1128 58.4112 65.69 58.5878 66.2775 58.5712C67.3752 58.5712 68.0115 58.0432 68.0115 57.3042C68.0115 56.6219 67.5105 56.2646 66.6832 56.1427L66.2935 56.0859C65.9355 56.0372 65.6491 55.9642 65.6491 55.7043C65.6491 55.42 65.9195 55.2494 66.373 55.2494C66.7893 55.2558 67.1972 55.3704 67.5582 55.5824L67.9162 54.9002ZM90.0773 54.4941C89.8756 54.488 89.676 54.5376 89.4996 54.6377C89.3232 54.7377 89.1765 54.8845 89.075 55.0626V54.5916H88.2557V58.4737H89.0829V56.2971C89.0829 55.6555 89.3534 55.2981 89.8943 55.2981C90.0712 55.2956 90.247 55.3288 90.4114 55.3956L90.6659 54.5997C90.477 54.5306 90.2779 54.4949 90.0773 54.4941ZM79.4182 56.5326C79.4073 56.8061 79.4525 57.0789 79.5509 57.3335C79.6494 57.588 79.799 57.8188 79.9901 58.0108C80.1811 58.2028 80.4094 58.3519 80.6603 58.4484C80.9112 58.5449 81.179 58.5868 81.4467 58.5712C81.9434 58.5967 82.4314 58.4315 82.8148 58.1082L82.4171 57.426C82.1311 57.6486 81.7824 57.7711 81.4228 57.7752C81.1128 57.756 80.8217 57.6167 80.6088 57.3858C80.3959 57.1549 80.2774 56.8497 80.2774 56.5326C80.2774 56.2155 80.3959 55.9103 80.6088 55.6794C80.8217 55.4485 81.1128 55.3092 81.4228 55.29C81.7824 55.2942 82.1311 55.4167 82.4171 55.6393L82.8148 54.957C82.4314 54.6338 81.9434 54.4686 81.4467 54.4941C81.1791 54.4785 80.9112 54.5204 80.6603 54.6169C80.4095 54.7134 80.1812 54.8624 79.9901 55.0544C79.7991 55.2464 79.6495 55.4771 79.551 55.7317C79.4525 55.9863 79.4073 56.2591 79.4182 56.5326ZM87.1659 56.5326V54.5916H86.3387V55.0626C86.1975 54.8768 86.0147 54.7282 85.8058 54.6293C85.5968 54.5304 85.3676 54.4841 85.1375 54.4941C84.6249 54.5198 84.1416 54.7457 83.7877 55.1252C83.4338 55.5047 83.2364 56.0086 83.2364 56.5327C83.2364 57.0567 83.4338 57.5606 83.7877 57.9401C84.1416 58.3196 84.6249 58.5456 85.1375 58.5712C85.3677 58.5812 85.5968 58.5349 85.8058 58.4359C86.0147 58.337 86.1975 58.1884 86.3387 58.0026V58.4737H87.1659V56.5326ZM84.0875 56.5326C84.1004 56.3035 84.1786 56.0832 84.3125 55.899C84.4465 55.7147 84.6303 55.5746 84.8414 55.4957C85.0525 55.4169 85.2815 55.4029 85.5003 55.4553C85.7191 55.5078 85.918 55.6245 86.0726 55.7911C86.2272 55.9576 86.3307 56.1667 86.3703 56.3926C86.4099 56.6185 86.3838 56.8512 86.2954 57.0622C86.207 57.2731 86.0601 57.4531 85.8727 57.5798C85.6853 57.7065 85.4657 57.7744 85.241 57.7752C85.0835 57.7774 84.9272 57.7462 84.7821 57.6837C84.6369 57.6212 84.506 57.5286 84.3977 57.4118C84.2893 57.2951 84.2058 57.1567 84.1524 57.0054C84.099 56.854 84.0769 56.693 84.0875 56.5326ZM74.1047 54.4941C73.5888 54.5218 73.1035 54.7525 72.7506 55.1376C72.3976 55.5228 72.2045 56.0326 72.2117 56.56C72.2189 57.0874 72.4259 57.5915 72.7892 57.9665C73.1525 58.3415 73.644 58.5582 74.1604 58.5712C74.7279 58.5916 75.2829 58.3978 75.7195 58.027L75.3138 57.4017C74.9997 57.6587 74.6106 57.8016 74.2081 57.8077C73.9348 57.8312 73.6632 57.7451 73.4509 57.5678C73.2386 57.3904 73.1022 57.1356 73.0706 56.8574H75.8945C75.9024 56.7519 75.9104 56.6463 75.9104 56.5326C75.9025 55.3225 75.1706 54.4941 74.1047 54.4941ZM74.0888 55.2494C74.3387 55.2444 74.5803 55.3408 74.7607 55.5174C74.9411 55.694 75.0456 55.9364 75.0513 56.1915H73.0786C73.0931 55.9309 73.2069 55.6864 73.3957 55.5103C73.5845 55.3343 73.8332 55.2406 74.0888 55.2494ZM94.842 56.5326V53.0322H94.0147V55.0626C93.8735 54.8768 93.6908 54.7282 93.4818 54.6293C93.2728 54.5304 93.0437 54.4841 92.8136 54.4941C92.301 54.5197 91.8177 54.7457 91.4638 55.1252C91.1098 55.5047 90.9124 56.0086 90.9124 56.5327C90.9124 57.0567 91.1098 57.5606 91.4638 57.9401C91.8177 58.3196 92.301 58.5456 92.8136 58.5712C93.0437 58.5812 93.2728 58.5349 93.4818 58.4359C93.6908 58.337 93.8735 58.1884 94.0147 58.0026V58.4737H94.842V56.5326ZM96.221 57.9111C96.2724 57.9108 96.3233 57.9211 96.3707 57.9414C96.4162 57.9608 96.4577 57.9889 96.4929 58.0242C96.5279 58.0593 96.5559 58.1011 96.5753 58.1471C96.5952 58.1944 96.6055 58.2453 96.6055 58.2968C96.6055 58.3482 96.5952 58.3992 96.5753 58.4465C96.5557 58.4923 96.5278 58.5338 96.4929 58.5689C96.4576 58.6042 96.4161 58.6324 96.3707 58.6521C96.3234 58.6727 96.2724 58.6832 96.221 58.6829C96.1453 58.6836 96.0711 58.6616 96.0076 58.6196C95.9441 58.5775 95.8941 58.5173 95.864 58.4465C95.8441 58.3992 95.8339 58.3482 95.8339 58.2968C95.8339 58.2453 95.8441 58.1944 95.864 58.1471C95.8833 58.1011 95.9112 58.0594 95.946 58.0242C95.9812 57.9886 96.0229 57.9605 96.0687 57.9414C96.117 57.921 96.1688 57.9107 96.221 57.9111ZM96.221 58.5977C96.2602 58.5981 96.299 58.59 96.335 58.5741C96.3695 58.5588 96.4009 58.537 96.4276 58.5098C96.4825 58.4531 96.5133 58.3767 96.5133 58.297C96.5133 58.2173 96.4825 58.1408 96.4276 58.0841C96.401 58.057 96.3696 58.0354 96.335 58.0204C96.299 58.0047 96.2602 57.9968 96.221 57.9972C96.1811 57.9969 96.1416 58.0048 96.1048 58.0204C96.0697 58.0351 96.0377 58.0568 96.0108 58.0841C95.9558 58.1408 95.925 58.2172 95.925 58.297C95.925 58.3767 95.9558 58.4532 96.0108 58.5098C96.0378 58.5372 96.0697 58.559 96.1048 58.5741C96.1415 58.59 96.1811 58.598 96.221 58.5977ZM96.2432 58.1163C96.2804 58.1138 96.3173 58.1247 96.3475 58.1471C96.3595 58.1572 96.3691 58.17 96.3754 58.1845C96.3818 58.1991 96.3847 58.2149 96.3841 58.2308C96.3845 58.2444 96.3821 58.258 96.3771 58.2706C96.372 58.2832 96.3645 58.2946 96.3549 58.304C96.3319 58.3249 96.3027 58.3374 96.272 58.3395L96.3868 58.4748H96.297L96.1905 58.3405H96.1562V58.4748H96.0812V58.1163H96.2432ZM96.1562 58.1835V58.279H96.2424C96.2589 58.2799 96.2753 58.2757 96.2896 58.2671C96.2954 58.2632 96.3001 58.2578 96.3032 58.2514C96.3062 58.245 96.3076 58.2379 96.3072 58.2308C96.3075 58.2238 96.3061 58.2169 96.303 58.2106C96.3 58.2044 96.2953 58.1991 96.2896 58.1953C96.2753 58.1868 96.2589 58.1827 96.2424 58.1835H96.1562ZM91.7636 56.5326C91.7765 56.3035 91.8547 56.0833 91.9887 55.899C92.1226 55.7148 92.3065 55.5747 92.5175 55.4958C92.7286 55.417 92.9576 55.403 93.1764 55.4555C93.3951 55.508 93.5941 55.6247 93.7487 55.7912C93.9032 55.9578 94.0067 56.1669 94.0463 56.3927C94.0859 56.6186 94.0598 56.8513 93.9714 57.0623C93.883 57.2732 93.736 57.4531 93.5487 57.5798C93.3613 57.7065 93.1417 57.7744 92.917 57.7752C92.7595 57.7774 92.6032 57.7462 92.4581 57.6837C92.313 57.6211 92.1821 57.5286 92.0737 57.4118C91.9654 57.2951 91.8819 57.1567 91.8285 57.0053C91.7751 56.854 91.753 56.693 91.7636 56.5326ZM63.8275 56.5326V54.5916H63.0002V55.0626C62.859 54.8768 62.6763 54.7282 62.4674 54.6293C62.2584 54.5304 62.0292 54.4841 61.7991 54.4941C61.2865 54.5198 60.8032 54.7457 60.4493 55.1252C60.0954 55.5047 59.898 56.0086 59.898 56.5327C59.898 57.0567 60.0954 57.5606 60.4493 57.9401C60.8032 58.3196 61.2865 58.5456 61.7991 58.5712C62.0293 58.5812 62.2584 58.5349 62.4674 58.4359C62.6763 58.337 62.859 58.1884 63.0002 58.0026V58.4737H63.8275V56.5326ZM60.7492 56.5326C60.762 56.3035 60.8403 56.0833 60.9742 55.899C61.1082 55.7148 61.292 55.5747 61.5031 55.4958C61.7141 55.417 61.9432 55.403 62.1619 55.4555C62.3807 55.508 62.5796 55.6247 62.7342 55.7912C62.8888 55.9578 62.9923 56.1669 63.0318 56.3927C63.0714 56.6186 63.0454 56.8513 62.957 57.0623C62.8685 57.2732 62.7216 57.4531 62.5342 57.5798C62.3468 57.7065 62.1273 57.7744 61.9025 57.7752C61.745 57.7774 61.5888 57.7462 61.4437 57.6837C61.2985 57.6211 61.1677 57.5286 61.0593 57.4118C60.9509 57.2951 60.8674 57.1567 60.8141 57.0053C60.7607 56.854 60.7386 56.693 60.7492 56.5326Z" fill="#231F20"/>
<path d="M53.6656 69.3828H53V61.7133H53.6656V69.3828ZM58.5192 61.7133C59.1027 61.705 59.6835 61.7957 60.2369 61.9817C60.7178 62.1441 61.1604 62.4053 61.5353 62.7487C61.8944 63.0857 62.1756 63.4981 62.3582 63.9566C62.7441 64.9822 62.7441 66.1138 62.3582 67.1394C62.1756 67.5979 61.8944 68.0104 61.5353 68.3474C61.1604 68.6908 60.7178 68.952 60.2369 69.1143C59.6835 69.3004 59.1027 69.3912 58.5192 69.3828H55.7322V61.7133H58.5192ZM56.3978 62.3488V68.7473H58.5192C59.0192 68.7562 59.5173 68.6793 59.992 68.5199C60.3908 68.384 60.7575 68.1647 61.066 67.8763C61.3595 67.5949 61.5852 67.2502 61.7262 66.8682C62.0237 66.0135 62.0237 65.0824 61.7262 64.2277C61.5845 63.8452 61.3588 63.4997 61.066 63.2171C60.7582 62.9274 60.3915 62.7078 59.992 62.5733C59.5166 62.4159 59.0192 62.3399 58.5192 62.3488H56.3978ZM70.3811 61.6257C70.7006 61.6248 71.0187 61.6615 71.33 61.7352C71.6276 61.8055 71.9162 61.9112 72.1885 62.0502C72.4505 62.1836 72.6947 62.3501 72.9143 62.546C73.1291 62.7376 73.3152 62.959 73.4677 63.2034L72.9116 63.5759C72.7809 63.3751 72.6236 63.1927 72.445 63.0335C72.2644 62.8725 72.0647 62.7344 71.8506 62.6227C71.6296 62.5076 71.395 62.4202 71.1528 62.3624C70.8997 62.3018 70.6411 62.2715 70.3811 62.2721C69.9467 62.2682 69.5165 62.3482 69.1129 62.5076C68.7311 62.6586 68.3843 62.886 68.0929 63.176C67.7994 63.4718 67.5675 63.8239 67.4115 64.2114C67.0804 65.0715 67.0804 66.0246 67.4115 66.8847C67.5675 67.2722 67.7994 67.6243 68.0929 67.9201C68.3843 68.21 68.7311 68.4374 69.1129 68.5884C69.5165 68.7479 69.9467 68.8278 70.3811 68.8239C70.6397 68.8247 70.8976 68.7953 71.1501 68.7363C71.3915 68.68 71.6248 68.5935 71.8451 68.4788C72.0599 68.3671 72.2589 68.2291 72.4395 68.068C72.6195 67.9077 72.7761 67.7233 72.9061 67.5201L73.4513 67.9201C73.2926 68.1597 73.1024 68.3771 72.8869 68.5665C72.668 68.7582 72.4259 68.922 72.1673 69.0541C71.8978 69.1912 71.6132 69.2951 71.319 69.3635C70.4892 69.5532 69.6225 69.4893 68.829 69.18C68.3665 68.9963 67.9444 68.7216 67.5887 68.372C67.2344 68.0193 66.9553 67.5981 66.7678 67.1339C66.3718 66.115 66.3718 64.9837 66.7678 63.9648C66.9546 63.4997 67.2344 63.0774 67.5887 62.724C67.9444 62.3744 68.3665 62.0997 68.829 61.9159C69.3229 61.7195 69.8496 61.6209 70.3811 61.6257ZM75.5131 65.1207C75.6103 64.9581 75.7307 64.8105 75.8702 64.6824C76.0029 64.5605 76.1527 64.4581 76.3142 64.3784C76.4743 64.3 76.6425 64.2411 76.8163 64.2032C76.988 64.1651 77.1638 64.1458 77.3396 64.1456C77.6386 64.1421 77.9362 64.1912 78.218 64.2907C78.4718 64.3805 78.7044 64.5212 78.9021 64.7043C79.0957 64.8872 79.2469 65.1107 79.344 65.3589C79.4507 65.6338 79.5041 65.9268 79.5 66.2218V69.3828H78.8781V66.4136C78.8809 66.1753 78.8446 65.9382 78.7687 65.7123C78.7023 65.5142 78.5922 65.3336 78.4472 65.1837C78.3008 65.0365 78.1236 64.9234 77.9286 64.8523C77.7049 64.7722 77.4682 64.7332 77.2309 64.7372C77.0003 64.7355 76.7718 64.7773 76.557 64.8605C76.3539 64.9391 76.1685 65.0584 76.0118 65.2111C75.8552 65.3656 75.7314 65.5499 75.6465 65.7534C75.5555 65.9729 75.5097 66.2087 75.5131 66.4464V69.3828H74.8913V61.4941H75.5131V65.1207ZM83.1974 64.1456C83.5244 64.1426 83.8487 64.2089 84.149 64.3401C84.4363 64.466 84.6942 64.6506 84.9069 64.8824C85.1265 65.1252 85.2976 65.4078 85.4111 65.7151C85.5377 66.0541 85.6026 66.4132 85.602 66.7751C85.602 66.8226 85.6013 66.8674 85.5999 66.9093C85.5979 66.9513 85.5951 66.9924 85.5917 67.0327H81.2881C81.3046 67.3094 81.3716 67.5806 81.4872 67.8324C81.5919 68.0572 81.739 68.2592 81.9209 68.4268C82.0995 68.5894 82.3081 68.7151 82.5346 68.7966C82.7719 68.8816 83.0216 68.9242 83.2734 68.9225C83.6058 68.9283 83.9356 68.861 84.2386 68.7253C84.5245 68.5927 84.7845 68.411 85.0075 68.1884L85.3406 68.6158C85.1895 68.7701 85.0219 68.9078 84.8413 69.0267C84.6791 69.133 84.5054 69.2212 84.3234 69.2896C84.1497 69.3546 83.9697 69.4006 83.7864 69.4265C83.6038 69.4521 83.4198 69.4649 83.2357 69.4649C82.8807 69.4686 82.5284 69.4025 82.1993 69.2704C81.8922 69.147 81.6138 68.9614 81.3812 68.7253C81.1479 68.4854 80.9659 68.2002 80.8469 67.8872C80.7156 67.5427 80.6513 67.1765 80.6561 66.8079C80.652 66.4418 80.7176 66.0784 80.8497 65.737C80.97 65.4231 81.152 65.1363 81.3839 64.8933C81.6131 64.6566 81.8874 64.4692 82.1911 64.3428C82.5099 64.2097 82.852 64.1427 83.1974 64.1456ZM83.1865 64.6989C82.9409 64.6958 82.6974 64.7414 82.4689 64.8331C82.2575 64.9197 82.0639 65.0462 81.899 65.2056C81.7328 65.3687 81.5967 65.5608 81.4982 65.7726C81.3921 66.0007 81.3251 66.2452 81.2991 66.4957H84.9699C84.9514 66.2434 84.8905 65.9962 84.79 65.7644C84.6976 65.5529 84.5676 65.3606 84.4048 65.1974C84.2447 65.0375 84.0546 64.9111 83.8452 64.8256C83.6359 64.74 83.4122 64.6969 83.1865 64.6989ZM89.1797 64.1456C89.5436 64.1421 89.9042 64.2119 90.2407 64.351C90.5588 64.4831 90.8434 64.6864 91.0719 64.9454L90.6683 65.3673C90.4747 65.1707 90.2462 65.0119 89.9951 64.8989C89.7324 64.7847 89.4493 64.7277 89.1633 64.7318C88.8945 64.7295 88.6283 64.7827 88.3807 64.8879C88.144 64.9884 87.9299 65.1356 87.7507 65.3207C87.5701 65.5098 87.4278 65.7333 87.3334 65.978C87.1336 66.5131 87.1336 67.1028 87.3334 67.6379C87.4257 67.8805 87.5667 68.1016 87.7466 68.288C87.9265 68.4745 88.142 68.6223 88.3807 68.7226C88.6283 68.8278 88.8945 68.881 89.1633 68.8787C89.4534 68.882 89.7414 68.8222 90.0061 68.7034C90.2578 68.5896 90.4877 68.432 90.6847 68.2378L91.0719 68.6651C90.8413 68.923 90.5561 69.126 90.238 69.2595C89.558 69.5324 88.7994 69.5334 88.1187 69.2622C87.8074 69.1349 87.5242 68.9452 87.2882 68.7045C87.0522 68.4639 86.8668 68.1774 86.7444 67.8625C86.4865 67.1825 86.4865 66.4307 86.7444 65.7507C86.8662 65.4351 87.0509 65.148 87.2876 64.9067C87.5236 64.6656 87.8068 64.4756 88.1187 64.3483C88.4553 64.2103 88.8165 64.1414 89.1797 64.1456ZM92.9429 66.4026H93.7774L95.9364 64.2277H96.7217L94.2789 66.6601L96.7655 69.3828H95.9747L93.7774 66.9669H92.9429V69.3828H92.321V61.4941H92.9429V66.4026Z" fill="black"/>
<path d="M80.7978 25.9043H68.9648V47.2638H80.7978V25.9043Z" fill="#FF5F00"/>
<path d="M69.7156 36.5841C69.7142 34.527 70.178 32.4963 71.0724 30.6462C71.9683 28.7959 73.2703 27.1743 74.8814 25.9043C72.8859 24.3291 70.4901 23.3496 67.9672 23.0776C65.4442 22.8055 62.8953 23.252 60.6137 24.3661C58.3306 25.4801 56.4073 27.2165 55.0605 29.3772C53.7138 31.5377 53 34.0351 53 36.5841C53 39.1329 53.7138 41.6304 55.0605 43.7909C56.4073 45.9515 58.3306 47.6881 60.6137 48.802C62.8953 49.9159 65.4442 50.3624 67.9672 50.0905C70.4901 49.8184 72.8859 48.8388 74.8814 47.2638C73.2703 45.9937 71.9683 44.3722 71.0724 42.5219C70.178 40.6716 69.7142 38.6411 69.7156 36.5841Z" fill="#EB001B"/>
<path d="M96.7608 36.5841C96.7608 39.1329 96.047 41.6302 94.7003 43.7908C93.3536 45.9513 91.4303 47.6879 89.1472 48.8019C86.8656 49.9159 84.3166 50.3624 81.7937 50.0905C79.2707 49.8184 76.8749 48.8388 74.8809 47.2638C76.4906 45.9924 77.7911 44.3707 78.6855 42.5206C79.5799 40.6706 80.0452 38.6407 80.0452 36.5841C80.0452 34.5273 79.5799 32.4973 78.6855 30.6473C77.7911 28.7973 76.4906 27.1756 74.8809 25.9043C76.8749 24.3291 79.2707 23.3496 81.7937 23.0776C84.3166 22.8055 86.8656 23.252 89.1472 24.3661C91.4303 25.4801 93.3536 27.2166 94.7003 29.3772C96.047 31.5377 96.7608 34.0351 96.7608 36.5841Z" fill="#F79E1B"/>
<path d="M74.738 40.5699V40.3629H74.8207V40.3207H74.6094V40.3629H74.6922V40.5699H74.738ZM75.1484 40.5699V40.3203H75.0834L75.0089 40.4919L74.9343 40.3203H74.8693V40.5699H74.9152V40.3816L74.9856 40.5439H75.0328L75.1026 40.3812V40.5699H75.1484Z" fill="#F79E1B"/>
</svg>
