<svg width="150" height="91" viewBox="0 0 150 91" fill="none" xmlns="http://www.w3.org/2000/svg">
<rect width="150" height="91" fill="#FFFCF4"/>
<path fill-rule="evenodd" clip-rule="evenodd" d="M80.3913 51.5913V51.5483H80.4332V51.5913H80.3913ZM80.2635 50.5266H80.3054V50.5696H80.2635V50.5266ZM80.2635 50.5266H80.2206V50.4847H80.2635V50.5266ZM80.2206 50.4847H80.1787V50.4417H80.2206V50.4847ZM80.1787 50.4417H80.1357V50.3988H80.1787V50.4417ZM65.1948 46.4388H65.2367V46.4817H65.1948V46.4388ZM66.2162 46.312V46.3539H66.1732V46.312H66.2162ZM66.2591 46.269V46.312H66.2162V46.269H66.2591ZM66.301 46.226V46.269H66.2591V46.226H66.301ZM66.344 46.1841V46.226H66.301V46.1841H66.344ZM84.3921 36.6461V36.6891H84.3492V36.6461H84.3921ZM84.4351 36.6031V36.6461H84.3921V36.6031H84.4351ZM84.477 36.5612V36.6031H84.4351V36.5612H84.477ZM84.477 36.5612V36.5183H84.5199V36.5612H84.477ZM85.4565 36.3904H85.4136V36.3485H85.4565V36.3904ZM84.3492 36.6891V36.731H84.3073V36.7739H84.2643V36.8159H84.2214V36.8588H84.1795V36.9018H84.1365V36.9437H84.0946V36.9867H84.0517V37.0296H84.0087V37.0715H83.9668V37.1145H83.9239V37.1575H83.8809V37.1994H83.839V37.2424H83.7961V37.2853H83.7541V37.3272H83.7112V37.3702H83.6682V37.4121H83.6263V37.4551H83.5834V37.498H83.5404V37.54H83.4985V37.5829H83.4556V37.6259H83.4137V37.6678H83.3707V37.7108H83.3278V37.7527H83.2859V37.7956H83.2429V37.8386H83.2V37.8805H83.1581V37.9235H83.1151V37.9665H83.0722V38.0084H83.0303V38.0513H82.9873V38.0933H82.9454V38.1362H82.9024V38.1792H82.8595V38.2211H82.8176V38.2641H82.7746V38.307H82.7317V38.3489H82.6898V38.3919H82.6468V38.4349H82.6039V38.4768H82.562V38.5197H82.519V38.5627H82.4771V38.6046H82.4342V38.6476H82.3912V38.6895H82.3493V38.7325H82.3064V38.7754H82.2634V38.8174H82.2215V38.8603H82.1786V38.9033H82.1366V38.9452H82.0937V38.9882H82.0507V39.0301H82.0088V39.073H81.9659V39.116H81.9229V39.1579H81.881V39.2009H81.8381V39.2439H81.7951V39.2858H81.7532V39.3287H81.7103V39.3706H81.6684V39.4136H81.6254V39.4566H81.5825V39.4985H81.5406V39.5415H81.4976V39.5844H81.4547V39.6263H81.4128V39.6693H81.3698V39.7123H81.3279V39.7542H81.2849V39.7971H81.242V39.8391H81.2001V39.882H81.1571V39.925H81.1142V39.9669H81.0723V40.0099H81.0293V40.0528H80.9864V40.0947H80.9445V40.1377H80.9015V40.1807H80.8596V40.2226H80.8167V40.2656H80.7737V40.3075H80.7318V40.3504H80.6889V40.3934H80.6459V40.4353H80.604V40.4783H80.561V40.5212H80.5191V40.5632H80.4762V40.6061H80.4332V40.648H80.3913V40.691H80.3484V40.734H80.3054V40.7759H80.2635V40.8188H80.2206V40.8618H80.1787V40.9037H80.1357V40.9467H80.0928V40.9897H80.0509V41.0316H80.0079V41.0745H79.965V41.1165H79.9231V41.1594H79.8801V41.2024H79.8372V41.2873H79.7952V41.4151H79.7523V41.5H79.7952V41.6278H79.8372V41.6708H79.8801V41.7127H79.9231V41.7557H79.965V41.7986H80.0079V41.8406H80.0509V41.8835H80.0928V41.9254H80.1357V41.9684H80.1787V42.0114H80.2206V42.0533H80.2635V42.0962H80.3054V42.1392H80.3484V42.1811H80.3913V42.2241H80.4332V42.266H80.4762V42.309H80.5191V42.3519H80.561V42.3938H80.604V42.4368H80.6459V42.4798H80.6889V42.5217H80.7318V42.5647H80.7737V42.6076H80.8167V42.6495H80.8596V42.6925H80.9015V42.7344H80.9445V42.7774H80.9864V42.8203H81.0293V42.8623H81.0723V42.9052H81.1142V42.9482H81.1571V42.9901H81.2001V43.0331H81.242V43.075H81.2849V43.118H81.3279V43.1609H81.3698V43.2028H81.4128V43.2458H81.4547V43.2888H81.4976V43.3307H81.5406V43.3736H81.5825V43.4166H81.6254V43.4585H81.6684V43.5015H81.7103V43.5434H81.7532V43.5864H81.7951V43.6293H81.8381V43.6712H81.881V43.7142H81.9229V43.7572H81.9659V43.7991H82.0088V43.8421H82.0507V43.884H82.0937V43.9269H82.1366V43.9699H82.1786V44.0118H82.2215V44.0548H82.2634V44.0977H82.3064V44.1397H82.6898V44.1826H83.1151V44.2256H83.4985V44.2675H83.8809V44.3105H84.3073V44.3524H84.6907V44.3953H85.116V44.4383H78.646V44.4802H78.5612V44.5232H78.4753V44.5662H78.4334V44.651H78.3904V44.7359H78.3475V48.0997H78.3904V48.1426H78.4334V48.2275H78.4753V48.2705H78.5182V48.3124H78.5612V48.3554H78.6031V48.4403H78.646V48.4832H78.6879V48.5251H78.7309V48.6111H78.7738V48.653H78.8157V48.6959H78.8587V48.7389H78.9016V48.8238H78.9435V48.8667H78.9865V48.9087H79.0284V48.9516H79.0714V49.0365H79.1143V49.0795H79.1562V49.1214H79.1992V49.2073H79.2421V49.2492H79.284V49.2922H79.327V49.3352H79.3689V49.42H79.4118V49.462H79.4548V49.5049H79.4967V49.5479H79.5396V49.6328H79.5826V49.6757H79.6245V49.7176H79.6674V49.8025H79.7104V49.8455H79.7523V49.8885H79.7952V49.9304H79.8372V50.0163H79.8801V50.0582H79.9231V50.1012H79.965V50.1441H80.0079V50.229H80.0509V50.2709H80.0928V50.3139H80.1357V50.3988H80.0928V50.3569H80.0509V50.3139H80.0079V50.2709H79.965V50.229H79.9231V50.1861H79.8801V50.1441H79.8372V50.1012H79.7952V50.0582H79.7523V50.0163H79.7104V49.9733H79.6674V49.9304H79.6245V49.8885H79.5826V49.8455H79.5396V49.8025H79.4967V49.7606H79.4548V49.7176H79.4118V49.6757H79.3689V49.6328H79.327V49.5898H79.284V49.5479H79.2421V49.5049H79.1992V49.462H79.1562V49.42H79.1143V49.3771H79.0714V49.3352H79.0284V49.2922H78.9865V49.2492H78.9435V49.2073H78.9016V49.1644H78.8587V49.1214H78.8157V49.0795H78.7738V49.0365H78.7309V48.9935H78.6879V48.9516H78.646V48.9087H78.6031V48.8667H78.5612V48.8238H78.5182V48.7808H78.4753V48.7389H78.4334V48.6959H78.3904V48.653H78.3475V48.6111H78.3056V48.5681H78.2626V48.5251H78.2197V48.4832H78.1777V48.4403H78.1348V48.3983H78.0929V48.3554H78.0499V48.3124H78.007V48.2705H77.9651V48.2275H77.9221V48.1846H77.8792V48.1426H77.8373V48.0997H77.7943V48.0578H77.7514V48.0148H77.7095V47.9718H77.6665V47.9299H77.6246V47.887H77.5817V47.844H77.5387V47.8021H77.4968V47.7591H77.4539V47.7162H77.4109V47.6742H77.369V47.6313H77.326V47.5894H77.2841V47.5464H77.2412V47.5034H77.1982V47.4615H77.1563V47.4185H77.1134V47.3756H77.0704V47.3337H77.0285V47.2907H76.9856V47.2477H76.9426V47.2058H76.9007V47.1629H76.8578V47.1209H76.8159V47.078H76.7729V47.035H76.73V46.9931H76.6881V46.9501H76.6451V46.9072H76.6021V46.8653H76.5602V46.8223H76.5173V46.7804H76.4743V46.7374H76.4324V46.6944H76.3895V46.6525H76.3476V46.6096H76.3046V46.5666H76.2617V46.5247H76.2198V46.4817H76.1768V46.4388H76.1339V46.3968H76.092V46.3539H76.049V46.312H76.0071V46.269H75.9642V46.226H75.9212V46.1841H75.8793V46.1412H75.8363V46.0982H75.7934V46.0563H75.7515V46.0133H75.7085V45.9703H75.6656V45.9284H75.6237V45.8855H75.5388V45.8435H75.2403V45.8855H75.1973V45.9284H75.1125V45.9703H75.0705V46.0133H75.0276V46.0563H74.9846V46.0982H74.9427V46.1412H74.8998V46.1841H74.8568V46.226H74.8149V46.269H74.772V46.312H74.729V46.3539H74.6871V46.3968H74.6442V46.4388H74.6023V46.4817H74.5593V46.5247H74.5164V46.5666H74.4745V46.6096H74.4315V46.6525H74.3886V46.6944H74.3467V46.7374H74.3037V46.7804H74.2618V46.8223H74.2188V46.8653H74.1759V46.9072H74.134V46.9501H74.091V46.9931H74.0481V47.035H74.0062V47.078H73.9632V47.1209H73.9203V47.1629H73.8784V47.2058H73.8354V47.2477H73.7935V47.2907H73.7506V47.3337H73.7076V47.3756H73.6657V47.4185H73.6228V47.4615H73.5798V47.5034H73.5379V47.5464H73.495V47.5894H73.452V47.6313H73.4101V47.6742H73.3671V47.7162H73.3252V47.7591H73.2823V47.8021H73.2393V47.844H73.1974V47.887H73.1545V47.9299H73.1115V47.9718H73.0696V48.0148H73.0267V48.0578H72.9848V48.0997H72.9418V48.1426H72.8989V48.1846H72.857V48.2275H72.814V48.2705H72.7711V48.5681H72.7292V48.9087H72.6862V49.2492H72.6432V49.5898H72.6013V49.9304H72.5584V50.2709H72.5165V50.6126H72.4735V50.9531H72.4306V51.2937H72.3887V44.7789H72.3457V44.651H72.3028V44.6081H72.2609V44.5662H72.2179V44.5232H72.175V44.4802H68.4298V44.5232H68.3868V44.5662H68.3449V44.6081H68.302V44.651H68.2171V44.6929H68.1742V44.7359H68.1323V44.7789H68.0893V44.8208H68.0045V44.8638H67.9615V44.9067H67.9185V44.9486H67.8766V44.9916H67.8337V45.0346H67.7488V45.0765H67.7059V45.1194H67.664V45.1614H67.621V45.2043H67.5362V45.2473H67.4932V45.2892H67.4503V45.3322H67.4084V45.3751H67.3654V45.4171H67.2806V45.46H67.2376V45.5019H67.1957V45.5449H67.1528V45.5879H67.0679V45.6298H67.0249V45.6727H66.982V45.7157H66.9401V45.7576H66.8971V45.8006H66.8123V45.8435H66.7693V45.8855H66.7274V45.9284H66.6845V45.9703H66.5996V46.0133H66.5567V46.0563H66.5148V46.0982H66.4718V46.1412H66.4289V46.1841H66.344V46.1412H66.387V46.0982H66.4289V46.0563H66.4718V46.0133H66.5148V45.9703H66.5567V45.9284H66.5996V45.8855H66.6415V45.8435H66.6845V45.8006H66.7274V45.7576H66.7693V45.7157H66.8123V45.6727H66.8552V45.6298H66.8971V45.5879H66.9401V45.5449H66.982V45.5019H67.0249V45.46H67.0679V45.4171H67.1098V45.3751H67.1528V45.3322H67.1957V45.2892H67.2376V45.2473H67.2806V45.2043H67.3225V45.1614H67.3654V45.1194H67.4084V45.0765H67.4503V45.0346H67.4932V44.9916H67.5362V44.9486H67.5781V44.9067H67.621V44.8638H67.664V44.8208H67.7059V44.7789H67.7488V44.7359H67.7907V44.6929H67.8337V44.651H67.8766V44.6081H67.9185V44.5662H67.9615V44.5232H68.0045V44.4802H68.0464V44.4383H68.0893V44.3953H68.1323V44.3524H68.1742V44.3105H68.2171V44.2675H68.259V44.2256H68.302V44.1826H68.3449V44.1397H68.3868V44.0977H68.4298V44.0548H68.4727V44.0118H68.5146V43.9699H68.5576V43.9269H68.5995V43.884H68.6424V43.8421H68.6854V43.7991H68.7273V43.7572H68.7703V43.7142H68.8132V43.6712H68.8551V43.6293H68.8981V43.5864H68.941V43.5434H68.9829V43.5015H69.0259V43.4585H69.0678V43.4166H69.1107V43.3736H69.1537V43.3307H69.1956V43.2888H69.2385V43.2458H69.2815V43.2028H69.3234V43.1609H69.3663V43.118H69.4082V43.075H69.4512V43.0331H69.4941V42.9901H69.5361V42.9482H69.579V42.9052H69.622V42.8623H69.6639V42.8203H69.7068V42.7774H69.7498V42.7344H69.7917V42.6925H69.8346V42.6495H69.8765V42.6076H69.9195V42.5647H69.9624V42.5217H70.0043V42.4798H70.0473V42.4368H70.0902V42.3938H70.1321V42.3519H70.1751V42.309H70.217V42.266H70.2599V42.2241H70.3029V42.1811H70.3448V42.1392H70.3878V42.0962H70.4307V42.0533H70.4726V42.0114H70.5156V41.9684H70.5575V41.9254H70.6004V41.8835H70.6434V41.8406H70.6853V41.7986H70.7282V41.7557H70.7712V41.7127H70.8131V41.6708H70.856V41.6278H70.899V41.5H70.9409V41.3302H70.899V41.2443H70.856V41.1594H70.8131V41.1165H70.7712V41.0745H70.7282V41.0316H70.6853V40.9897H70.6434V40.9467H70.6004V40.9037H70.5575V40.8618H70.5156V40.8188H70.4726V40.7759H70.4307V40.734H70.3878V40.691H70.3448V40.648H70.3029V40.6061H70.2599V40.5632H70.217V40.5212H70.1751V40.4783H70.1321V40.4353H70.0902V40.3934H70.0473V40.3504H70.0043V40.3075H69.9624V40.2656H69.9195V40.2226H69.8765V40.1807H69.8346V40.1377H69.7917V40.0947H69.7498V40.0528H69.7068V40.0099H69.6639V39.9669H69.622V39.925H69.579V39.882H69.5361V39.8391H69.4941V39.7971H69.4512V39.7542H69.4082V39.7123H69.3663V39.6693H69.3234V39.6263H69.2815V39.5844H69.2385V39.5415H69.1956V39.4985H69.1537V39.4566H69.1107V39.4136H69.0678V39.3706H69.0259V39.3287H68.9829V39.2858H68.941V39.2439H68.8981V39.2009H68.8551V39.1579H68.8132V39.116H68.7703V39.073H68.7273V39.0301H68.6854V38.9882H68.6424V38.9452H68.5995V38.9033H68.5576V38.8603H68.5146V38.8174H68.4727V38.7754H68.4298V38.7325H68.3868V38.6895H68.0893V38.6476H67.621V38.6046H67.1957V38.5627H66.7274V38.5197H66.301V38.4768H65.8328V38.4349H65.4074V38.3919H72.1331V38.3489H72.175V38.307H72.2179V38.2641H72.2609V38.2211H72.3028V38.1362H72.3457V34.6876H72.3028V34.6446H72.2609V34.5597H72.2179V34.5168H72.175V34.4748H72.1331V34.4319H72.0901V34.347H72.0482V34.304H72.0053V34.2611H71.9623V34.2192H71.9204V34.1343H71.8774V34.0913H71.8345V34.0483H71.7926V34.0064H71.7496V33.9205H71.7077V33.8786H71.6648V33.8356H71.6218V33.7937H71.5799V33.7078H71.537V33.6659H71.494V33.6229H71.4521V33.5799H71.4092V33.4951H71.3673V33.4531H71.3243V33.4102H71.2814V33.3672H71.2395V33.2823H71.1965V33.2394H71.1536V33.1974H71.1116V33.1545H71.0687V33.0696H71.0257V33.0266H70.9838V32.9847H70.9409V32.9418H70.899V32.8569H70.856V32.8139H70.8131V32.771H70.7712V32.729H70.7282V32.6431H70.6853V32.6012H70.6434V32.5582H70.6004V32.4733H70.6434V32.5163H70.6853V32.5582H70.7282V32.6012H70.7712V32.6431H70.8131V32.6861H70.856V32.729H70.899V32.771H70.9409V32.8139H70.9838V32.8569H71.0257V32.8988H71.0687V32.9418H71.1116V32.9847H71.1536V33.0266H71.1965V33.0696H71.2395V33.1115H71.2814V33.1545H71.3243V33.1974H71.3673V33.2394H71.4092V33.2823H71.4521V33.3253H71.494V33.3672H71.537V33.4102H71.5799V33.4531H71.6218V33.4951H71.6648V33.538H71.7077V33.5799H71.7496V33.6229H71.7926V33.6659H71.8345V33.7078H71.8774V33.7507H71.9204V33.7937H71.9623V33.8356H72.0053V33.8786H72.0482V33.9205H72.0901V33.9635H72.1331V34.0064H72.175V34.0483H72.2179V34.0913H72.2609V34.1343H72.3028V34.1762H72.3457V34.2192H72.3887V34.2611H72.4306V34.304H72.4735V34.347H72.5165V34.3889H72.5584V34.4319H72.6013V34.4748H72.6432V34.5168H72.6862V34.5597H72.7292V34.6027H72.7711V34.6446H72.814V34.6876H72.857V34.7305H72.8989V34.7724H72.9418V34.8154H72.9848V34.8573H73.0267V34.9003H73.0696V34.9433H73.1115V34.9852H73.1545V35.0281H73.1974V35.0711H73.2393V35.113H73.2823V35.156H73.3252V35.1979H73.3671V35.2409H73.4101V35.2838H73.452V35.3257H73.495V35.3687H73.5379V35.4117H73.5798V35.4536H73.6228V35.4965H73.6657V35.5385H73.7076V35.5814H73.7506V35.6244H73.7935V35.6663H73.8354V35.7093H73.8784V35.7522H73.9203V35.7942H73.9632V35.8371H74.0062V35.8801H74.0481V35.922H74.091V35.965H74.134V36.0079H74.1759V36.0498H74.2188V36.0928H74.2618V36.1347H74.3037V36.1777H74.3467V36.2207H74.3886V36.2626H74.4315V36.3055H74.4745V36.3485H74.5164V36.3904H74.5593V36.4334H74.6023V36.4753H74.6442V36.5183H74.6871V36.5612H74.729V36.6031H74.772V36.6461H74.8149V36.6891H74.8568V36.731H74.8998V36.7739H74.9427V36.8159H74.9846V36.8588H75.0276V36.9018H75.0705V36.9437H75.1554V36.9867H75.2403V37.0296H75.411V36.9867H75.5388V36.9437H75.5807V36.9018H75.6237V36.8588H75.6656V36.8159H75.7085V36.7739H75.7515V36.731H75.7934V36.6891H75.8363V36.6461H75.8793V36.6031H75.9212V36.5612H75.9642V36.5183H76.0071V36.4753H76.049V36.4334H76.092V36.3904H76.1339V36.3485H76.1768V36.3055H76.2198V36.2626H76.2617V36.2207H76.3046V36.1777H76.3476V36.1347H76.3895V36.0928H76.4324V36.0498H76.4743V36.0079H76.5173V35.965H76.5602V35.922H76.6021V35.8801H76.6451V35.8371H76.6881V35.7942H76.73V35.7522H76.7729V35.7093H76.8159V35.6663H76.8578V35.6244H76.9007V35.5814H76.9426V35.5385H76.9856V35.4965H77.0285V35.4536H77.0704V35.4117H77.1134V35.3687H77.1563V35.3257H77.1982V35.2838H77.2412V35.2409H77.2841V35.1979H77.326V35.156H77.369V35.113H77.4109V35.0711H77.4539V35.0281H77.4968V34.9852H77.5387V34.9433H77.5817V34.9003H77.6246V34.8573H77.6665V34.8154H77.7095V34.7724H77.7514V34.7305H77.7943V34.6876H77.8373V34.6446H77.8792V34.6027H77.9221V34.5597H77.9651V34.5168H78.007V34.347H78.0499V33.9205H78.0929V33.4951H78.1348V33.1115H78.1777V32.6861H78.2197V32.3025H78.2626V31.8771H78.3056V31.4936H78.3475V38.1792H78.3904V38.2211H78.4334V38.307H78.4753V38.3489H78.5612V38.3919H82.2215V38.3489H82.2634V38.307H82.3064V38.2641H82.3912V38.2211H82.4342V38.1792H82.4771V38.1362H82.519V38.0933H82.6039V38.0513H82.6468V38.0084H82.6898V37.9665H82.7317V37.9235H82.8176V37.8805H82.8595V37.8386H82.9024V37.7956H82.9454V37.7527H82.9873V37.7108H83.0722V37.6678H83.1151V37.6259H83.1581V37.5829H83.2V37.54H83.2859V37.498H83.3278V37.4551H83.3707V37.4121H83.4137V37.3702H83.4985V37.3272H83.5404V37.2853H83.5834V37.2424H83.6263V37.1994H83.7112V37.1575H83.7541V37.1145H83.7961V37.0715H83.839V37.0296H83.9239V36.9867H83.9668V36.9437H84.0087V36.9018H84.0517V36.8588H84.1365V36.8159H84.1795V36.7739H84.2214V36.731H84.2643V36.6891H84.3492ZM70.6004 32.4733H70.5575V32.4304H70.6004V32.4733ZM70.5575 32.4304H70.5156V32.3885H70.5575V32.4304ZM70.5156 32.3885H70.4726V32.3455H70.5156V32.3885ZM70.4726 32.3455H70.4307V32.3025H70.4726V32.3455ZM70.2599 31.3668V31.4087H70.217V31.3668H70.2599ZM70.2599 31.3668V31.2808H70.3029V31.196H70.3448V31.1111H70.3878V31.0681H70.4307V30.9832H70.4726V30.8983H70.5156V30.8124H70.5575V30.7275H70.6004V30.6846H70.6434V30.5997H70.6853V30.5148H70.7282V30.4299H70.7712V30.387H70.8131V30.3021H70.856V30.2162H70.899V30.1313H70.9409V30.0464H70.9838V30.0034H71.0257V29.9186H71.0687V29.8337H71.1116V29.7488H71.1536V29.6629H71.1965V29.621H71.2395V29.535H71.2814V29.4501H71.3243V29.3653H71.3673V29.3223H71.4092V29.2374H71.4521V29.1525H71.494V29.0666H71.537V28.9817H71.5799V28.9398H71.6218V28.8539H71.6648V28.769H71.7077V28.6841H71.7496V28.5982H71.7926V28.5563H71.8345V28.4714H71.8774V28.3855H71.9204V28.3006H71.9623V28.2576H72.0053V28.1728H72.0482V28.0879H72.0901V28.003H72.1331V27.9171H72.175V27.8751H72.2179V27.7892H72.2609V27.7043H72.3028V27.6195H72.3457V27.4916H72.3028V27.4067H72.2609V27.3219H72.2179V27.2789H72.1331V27.2359H64.8543V27.2789H64.8114V27.3219H64.7694V27.3638H64.7265V27.4067H64.6835V27.5346H64.6416V37.7956H64.5987V37.6678H64.5557V37.498H64.5138V37.3702H64.4709V37.2424H64.4279V37.0715H64.386V36.9437H64.3431V36.7739H64.3012V36.6461H64.2582V36.4753H64.2153V36.3485H64.1734V36.1777H64.1304V36.0498H64.0875V35.922H64.0456V35.7522H64.0026V35.6244H63.9596V35.4536H63.9177V35.3257H63.8748V35.156H63.8329V35.0281H63.7899V34.8573H63.747V34.7305H63.7051V34.5597H63.6621V34.4319H63.6192V34.304H63.5773V34.1343H63.5343V34.0064H63.4924V33.8356H63.4495V33.7507H63.4065V33.7078H63.2787V33.6659H63.066V33.7078H62.9812V33.7507H62.9382V33.7937H62.8963V33.8356H62.8534V33.8786H62.8104V33.9205H62.7685V33.9635H62.7256V34.0064H62.6826V34.0483H62.6407V34.0913H62.5978V34.1343H62.5559V34.1762H62.5129V34.2192H62.47V34.2611H62.4281V34.304H62.3851V34.347H62.3421V34.3889H62.3002V34.4319H62.2573V34.4748H62.2154V34.5168H62.1724V34.5597H62.1295V34.6027H62.0876V34.6446H62.0446V34.6876H62.0017V34.7305H61.9598V34.7724H61.9168V34.8154H61.8739V34.8573H61.832V34.9003H61.789V34.9433H61.7471V34.9852H61.7042V35.0281H61.6612V35.0711H61.6193V35.113H61.5763V35.156H61.5334V35.1979H61.4915V35.2409H61.4485V35.2838H61.4056V35.3257H61.3637V35.3687H61.3207V35.4117H61.2788V35.4536H61.2359V35.4965H61.1929V35.5385H61.151V35.5814H61.1081V35.6244H61.0651V35.6663H61.0232V35.7093H60.9803V35.7522H60.9384V35.7942H60.8954V35.8371H60.8525V35.8801H60.8105V35.922H60.7676V35.965H60.7246V36.0079H60.6827V36.0498H60.6398V36.0928H60.5968V36.1347H60.5549V36.1777H60.512V36.2207H60.4701V36.2626H60.4271V36.3055H60.3842V36.3485H60.3423V36.3904H60.2993V36.4334H60.2564V36.4753H60.2145V36.5183H60.1715V36.5612H60.1296V36.6031H60.0867V36.6461H60.0437V36.6891H60.0018V36.731H59.9588V36.7739H59.9159V36.8159H59.874V36.8588H59.831V36.9018H59.7881V36.9437H59.7462V36.9867H59.7032V37.0296H59.6613V37.0715H59.6184V37.1145H59.5754V37.1575H59.5335V37.1994H59.4906V37.2424H59.4476V37.2853H59.4057V37.3272H59.3628V37.3702H59.3209V37.4121H59.2779V37.4551H59.235V37.498H59.193V37.54H59.1501V37.5829H59.1071V37.6259H59.0652V37.6678H59.0223V37.7108H58.9793V37.7527H58.9374V37.7956H58.8945V37.8386H58.8526V37.8805H58.8096V37.9235H58.7667V37.9665H58.7248V38.0084H58.6818V38.0513H58.6389V38.0933H58.597V38.1362H58.554V38.1792H58.5121V38.2211H58.4692V38.2641H58.4262V38.307H58.3843V38.3489H58.3413V38.3919H58.2984V38.4349H58.2565V38.4768H58.2135V38.5197H58.1706V38.5627H58.1287V38.6046H58.0857V38.6476H58.0438V38.6895H58.0009V38.7325H57.9579V38.7754H57.916V39.116H57.9579V39.1579H58.0009V39.2439H58.0438V39.2858H58.0857V39.3287H58.1287V39.3706H58.1706V39.4136H58.2135V39.4566H58.2565V39.4985H58.2984V39.5415H58.3413V39.5844H58.3843V39.6263H58.4262V39.6693H58.4692V39.7123H58.5121V39.7542H58.554V39.7971H58.597V39.8391H58.6389V39.882H58.6818V39.925H58.7248V39.9669H58.7667V40.0099H58.8096V40.0528H58.8526V40.0947H58.8945V40.1377H58.9374V40.1807H58.9793V40.2226H59.0223V40.2656H59.0652V40.3075H59.1071V40.3504H59.1501V40.3934H59.193V40.4353H59.235V40.4783H59.2779V40.5212H59.3209V40.5632H59.3628V40.6061H59.4057V40.648H59.4476V40.691H59.4906V40.734H59.5335V40.7759H59.5754V40.8188H59.6184V40.8618H59.6613V40.9037H59.7032V40.9467H59.7462V40.9897H59.7881V41.0316H59.831V41.0745H59.874V41.1165H59.9159V41.1594H59.9588V41.2024H60.0018V41.2443H60.0437V41.2873H60.0867V41.3302H60.1296V41.3721H60.1715V41.4151H60.2145V41.457H60.2564V41.5H60.2993V41.543H60.3423V41.5849H60.3842V41.6278H60.4271V41.6708H60.4701V41.7127H60.512V41.7557H60.5549V41.7986H60.5968V41.8406H60.6398V41.8835H60.6827V41.9254H60.7246V41.9684H60.7676V42.0114H60.8105V42.0533H60.8525V42.0962H60.8954V42.1392H60.9384V42.1811H60.9803V42.2241H61.0232V42.266H61.0651V42.309H61.1081V42.3519H61.151V42.3938H61.1929V42.4368H61.2359V42.4798H61.2788V42.5217H61.3207V42.5647H61.3637V42.6076H61.4056V42.6495H61.4485V42.6925H61.4915V42.7344H61.5334V42.7774H61.5763V42.8203H61.6193V42.8623H61.6612V42.9052H61.7042V42.9482H61.7471V42.9901H61.789V43.0331H61.832V43.075H61.8739V43.118H61.9168V43.1609H61.9598V43.2028H62.0017V43.2458H62.0446V43.2888H62.0876V43.3307H62.1295V43.3736H62.1724V43.4166H62.2154V43.4585H62.2573V43.5015H62.3002V43.5434H62.3421V43.5864H62.3851V43.6293H62.4281V43.6712H62.47V43.7142H62.5129V43.7572H62.5559V43.7991H62.5978V43.8421H62.6407V43.884H62.6826V43.9269H62.7256V43.9699H62.7685V44.0118H62.8104V44.0548H62.8534V44.0977H62.8963V44.1397H62.9382V44.1826H62.9812V44.2256H63.0241V44.2675H63.066V44.3105H63.109V44.3524H63.1509V44.3953H63.1939V44.4383H63.2368V44.4802H63.2787V44.5232H63.3217V44.5662H63.3646V44.6081H63.4065V44.651H63.4495V44.6929H63.4924V44.7359H63.5343V44.7789H63.5773V44.8208H63.6192V44.8638H63.6621V44.9067H63.7051V44.9486H63.747V44.9916H63.7899V45.0346H63.8329V45.0765H63.8748V45.1194H63.9177V45.1614H63.9596V45.2043H64.0026V45.2473H64.0456V45.2892H64.0875V45.3322H64.1304V45.3751H64.1734V45.4171H64.2153V45.46H64.2582V45.5019H64.3012V45.5449H64.3431V45.5879H64.386V45.6298H64.4279V45.6727H64.4709V45.7157H64.5138V45.7576H64.5557V45.8006H64.5987V45.8435H64.6416V45.8855H64.6835V45.9284H64.7265V45.9703H64.7694V46.0133H64.8114V46.0563H64.8543V46.0982H64.8962V46.1412H64.9392V46.1841H64.9821V46.226H65.024V46.269H65.067V46.312H65.1099V46.3539H65.1518V46.3968H65.1948V46.4388H65.1099V46.3968H65.024V46.3539H64.9821V46.312H64.8962V46.269H64.8114V46.226H64.7265V46.1841H64.6416V46.1412H64.5987V46.0982H64.5138V46.0563H64.4279V46.0133H64.3431V45.9703H64.2582V45.9284H64.1734V45.8855H64.1304V45.8435H64.0456V45.8006H63.9596V45.7576H63.8748V45.7157H63.7899V45.6727H63.747V45.6298H63.6621V45.5879H63.5773V45.5449H63.4924V45.5019H63.4065V45.46H63.3646V45.4171H63.2787V45.3751H63.1939V45.3322H63.109V45.2892H63.0241V45.2473H62.9382V45.2043H62.8963V45.1614H62.8104V45.1194H62.7256V45.0765H62.6407V45.0346H62.5559V44.9916H62.5129V44.9486H62.4281V44.9067H62.3421V44.8638H62.2573V44.8208H62.1724V44.7789H62.0876V44.7359H62.0446V44.6929H61.9598V44.651H61.8739V44.6081H61.789V44.5662H61.7042V44.5232H61.6612V44.4802H61.4056V44.5232H61.3207V44.5662H61.2788V44.6081H61.2359V44.6929H61.1929V51.8889H61.2359V51.9748H61.2788V52.0167H61.3207V52.0597H61.3637V52.1027H61.4485V52.1446H71.8345V52.1876H71.7077V52.2305H71.537V52.2724H71.4092V52.3154H71.2395V52.3573H71.1116V52.4003H70.9409V52.4432H70.8131V52.4852H70.6434V52.5281H70.4726V52.5711H70.3448V52.613H70.1751V52.656H70.0473V52.6979H69.8765V52.7408H69.7498V52.7838H69.579V52.8257H69.4512V52.8687H69.2815V52.9117H69.1537V52.9536H68.9829V52.9965H68.8551V53.0395H68.6854V53.0814H68.5146V53.1244H68.3868V53.1663H68.2171V53.2093H68.0893V53.2522H67.9185V53.2941H67.7907V53.3371H67.7059V53.422H67.664V53.5498H67.621V53.6347H67.664V53.7626H67.7059V53.8485H67.7488V53.8904H67.7907V53.9334H67.8337V53.9753H67.8766V54.0182H67.9185V54.0612H67.9615V54.1031H68.0045V54.1461H68.0464V54.1891H68.0893V54.231H68.1323V54.2739H68.1742V54.3158H68.2171V54.3588H68.259V54.4018H68.302V54.4437H68.3449V54.4867H68.3868V54.5296H68.4298V54.5715H68.4727V54.6145H68.5146V54.6575H68.5576V54.6994H68.5995V54.7423H68.6424V54.7843H68.6854V54.8272H68.7273V54.8702H68.7703V54.9121H68.8132V54.9551H68.8551V54.998H68.8981V55.0399H68.941V55.0829H68.9829V55.1248H69.0259V55.1678H69.0678V55.2108H69.1107V55.2527H69.1537V55.2956H69.1956V55.3386H69.2385V55.3805H69.2815V55.4235H69.3234V55.4664H69.3663V55.5084H69.4082V55.5513H69.4512V55.5932H69.4941V55.6362H69.5361V55.6792H69.579V55.7211H69.622V55.764H69.6639V55.807H69.7068V55.8489H69.7498V55.8919H69.7917V55.9338H69.8346V55.9768H69.8765V56.0197H69.9195V56.0617H69.9624V56.1046H70.0043V56.1476H70.0473V56.1895H70.0902V56.2325H70.1321V56.2754H70.1751V56.3173H70.217V56.3603H70.2599V56.4022H70.3029V56.4452H70.3448V56.4882H70.3878V56.5301H70.4307V56.573H70.4726V56.616H70.5156V56.6579H70.5575V56.7009H70.6004V56.7438H70.6434V56.7858H70.6853V56.8287H70.7282V56.8706H70.7712V56.9136H70.8131V56.9566H70.856V56.9985H70.899V57.0414H70.9409V57.0844H70.9838V57.1263H71.0257V57.1693H71.0687V57.2112H71.1116V57.2542H71.1536V57.2971H71.1965V57.339H71.2395V57.382H71.2814V57.425H71.3243V57.4669H71.3673V57.5099H71.4092V57.5518H71.4521V57.5947H71.494V57.6377H71.537V57.6796H71.5799V57.7226H71.6218V57.7655H71.6648V57.8075H71.7077V57.8504H71.7496V57.8934H71.7926V57.9353H71.8345V57.9783H71.8774V58.0212H71.9204V58.0631H71.9623V58.1061H72.0053V58.148H72.0482V58.191H72.0901V58.234H72.1331V58.2759H72.175V58.3188H72.2179V58.3618H72.2609V58.4037H72.3028V58.4467H72.3457V58.4886H72.3887V58.5316H72.4306V58.5745H72.4735V58.6164H72.5165V58.6594H72.5584V58.7024H72.6013V58.7443H72.6432V58.7873H72.7292V58.8292H72.814V58.8721H73.0267V58.8292H73.1115V58.7873H73.1974V58.7443H73.2393V58.7024H73.2823V58.6594H73.3252V58.6164H73.3671V58.5745H73.4101V58.5316H73.452V58.4886H73.495V58.4467H73.5379V58.4037H73.5798V58.3618H73.6228V58.3188H73.6657V58.2759H73.7076V58.234H73.7506V58.191H73.7935V58.148H73.8354V58.1061H73.8784V58.0631H73.9203V58.0212H73.9632V57.9783H74.0062V57.9353H74.0481V57.8934H74.091V57.8504H74.134V57.8075H74.1759V57.7655H74.2188V57.7226H74.2618V57.6796H74.3037V57.6377H74.3467V57.5947H74.3886V57.5518H74.4315V57.5099H74.4745V57.4669H74.5164V57.425H74.5593V57.382H74.6023V57.339H74.6442V57.2971H74.6871V57.2542H74.729V57.2112H74.772V57.1693H74.8149V57.1263H74.8568V57.0844H74.8998V57.0414H74.9427V56.9985H74.9846V56.9566H75.0276V56.9136H75.0705V56.8706H75.1125V56.8287H75.1554V56.7858H75.1973V56.7438H75.2403V56.7009H75.2832V56.6579H75.3251V56.616H75.3681V56.573H75.411V56.5301H75.4529V56.4882H75.4959V56.4452H75.5388V56.4022H75.5807V56.3603H75.6237V56.3173H75.6656V56.2754H75.7085V56.2325H75.7515V56.1895H75.7934V56.1476H75.8363V56.1046H75.8793V56.0617H75.9212V56.0197H75.9642V55.9768H76.0071V55.9338H76.049V55.8919H76.092V55.8489H76.1339V55.807H76.1768V55.764H76.2198V55.7211H76.2617V55.6792H76.3046V55.6362H76.3476V55.5932H76.3895V55.5513H76.4324V55.5084H76.4743V55.4664H76.5173V55.4235H76.5602V55.3805H76.6021V55.3386H76.6451V55.2956H76.6881V55.2527H76.73V55.2108H76.7729V55.1678H76.8159V55.1248H76.8578V55.0829H76.9007V55.0399H76.9426V54.998H76.9856V54.9551H77.0285V54.9121H77.0704V54.8702H77.1134V54.8272H77.1563V54.7843H77.1982V54.7423H77.2412V54.6994H77.2841V54.6575H77.326V54.6145H77.369V54.5715H77.4109V54.5296H77.4539V54.4867H77.4968V54.4437H77.5387V54.4018H77.5817V54.3588H77.6246V54.3158H77.6665V54.2739H77.7095V54.231H77.7514V54.1891H77.7943V54.1461H77.8373V54.1031H77.8792V54.0612H77.9221V54.0182H77.9651V53.9753H78.007V53.9334H78.0499V53.8904H78.0929V53.8485H78.1348V53.8055H78.1777V53.7626H78.2197V53.7206H78.2626V53.6777H78.3056V53.6347H78.3475V53.5928H78.3904V53.5498H78.4334V53.5069H78.4753V53.4649H78.5182V53.422H78.5612V53.3801H78.6031V53.3371H78.646V53.2941H78.6879V53.2522H78.7309V53.2093H78.7738V53.1663H78.8157V53.1244H78.8587V53.0814H78.9016V53.0395H78.9435V52.9965H78.9865V52.9536H79.0284V52.9117H79.0714V52.8687H79.1143V52.8257H79.1562V52.7838H79.1992V52.7408H79.2421V52.6979H79.284V52.656H79.327V52.613H79.3689V52.5711H79.4118V52.5281H79.4548V52.4852H79.4967V52.4432H79.5396V52.4003H79.5826V52.3573H79.6245V52.3154H79.6674V52.2724H79.7104V52.2305H79.7523V52.1876H79.7952V52.1446H79.8372V52.1027H79.8801V52.0597H79.9231V52.0167H79.965V51.9748H80.0079V51.9319H80.0509V51.8889H80.0928V51.847H80.1357V51.804H80.1787V51.7621H80.2206V51.7191H80.2635V51.6762H80.3054V51.6343H80.3484V51.5913H80.3913V51.6762H80.3484V51.7191H80.3054V51.804H80.2635V51.8889H80.2206V51.9748H80.1787V52.0167H80.1357V52.1027H80.0928V52.1876H80.0509V52.2724H80.0079V52.3573H79.965V52.4003H79.9231V52.4852H79.8801V52.5711H79.8372V52.656H79.7952V52.7408H79.7523V52.7838H79.7104V52.8687H79.6674V52.9536H79.6245V53.0395H79.5826V53.1244H79.5396V53.1663H79.4967V53.2522H79.4548V53.3371H79.4118V53.422H79.3689V53.4649H79.327V53.5498H79.284V53.6347H79.2421V53.7206H79.1992V53.8055H79.1562V53.8485H79.1143V53.9334H79.0714V54.0182H79.0284V54.1031H78.9865V54.1891H78.9435V54.231H78.9016V54.3158H78.8587V54.4018H78.8157V54.4867H78.7738V54.5296H78.7309V54.6145H78.6879V54.6994H78.646V54.7843H78.6031V54.8702H78.5612V54.9121H78.5182V54.998H78.4753V55.0829H78.4334V55.1678H78.3904V55.2527H78.3475V55.3386H78.3904V55.4664H78.4334V55.5084H78.4753V55.5513H78.5182V55.5932H78.6031V55.6362H85.797V55.5932H85.8818V55.5513H85.9248V55.5084H85.9667V55.4664H86.0096V55.3386H86.0526V45.0346H86.0945V45.1614H86.1374V45.3322H86.1804V45.46H86.2223V45.5879H86.2653V45.7576H86.3082V45.8855H86.3501V46.0563H86.3931V46.1841H86.435V46.3539H86.4779V46.4817H86.5209V46.6525H86.5628V46.7804H86.6057V46.9072H86.6487V47.078H86.6906V47.2058H86.7335V47.3756H86.7765V47.5034H86.8184V47.6742H86.8613V47.8021H86.9032V47.9718H86.9462V48.0997H86.9892V48.2275H87.0311V48.3983H87.074V48.5251H87.117V48.6959H87.1589V48.8238H87.2018V48.9935H87.2437V49.0795H87.2867V49.1214H87.3296V49.1644H87.4145V49.2073H87.6271V49.1644H87.712V49.1214H87.755V49.0795H87.7979V49.0365H87.8398V48.9935H87.8828V48.9516H87.9257V48.9087H87.9676V48.8667H88.0106V48.8238H88.0535V48.7808H88.0954V48.7389H88.1384V48.6959H88.1803V48.653H88.2232V48.6111H88.2662V48.5681H88.3081V48.5251H88.351V48.4832H88.394V48.4403H88.4359V48.3983H88.4788V48.3554H88.5208V48.3124H88.5637V48.2705H88.6067V48.2275H88.6486V48.1846H88.6915V48.1426H88.7345V48.0997H88.7764V48.0578H88.8193V48.0148H88.8623V47.9718H88.9042V47.9299H88.9471V47.887H88.989V47.844H89.032V47.8021H89.0749V47.7591H89.1168V47.7162H89.1598V47.6742H89.2027V47.6313H89.2446V47.5894H89.2876V47.5464H89.3305V47.5034H89.3725V47.4615H89.4154V47.4185H89.4573V47.3756H89.5003V47.3337H89.5432V47.2907H89.5851V47.2477H89.6281V47.2058H89.671V47.1629H89.7129V47.1209H89.7559V47.078H89.7978V47.035H89.8407V46.9931H89.8837V46.9501H89.9256V46.9072H89.9685V46.8653H90.0115V46.8223H90.0534V46.7804H90.0963V46.7374H90.1393V46.6944H90.1812V46.6525H90.2242V46.6096H90.2661V46.5666H90.309V46.5247H90.352V46.4817H90.3939V46.4388H90.4368V46.3968H90.4798V46.3539H90.5217V46.312H90.5646V46.269H90.6065V46.226H90.6495V46.1841H90.6924V46.1412H90.7343V46.0982H90.7773V46.0563H90.8202V46.0133H90.8621V45.9703H90.9051V45.9284H90.9481V45.8855H90.99V45.8435H91.0329V45.8006H91.0748V45.7576H91.1178V45.7157H91.1607V45.6727H91.2026V45.6298H91.2456V45.5879H91.2885V45.5449H91.3304V45.5019H91.3734V45.46H91.4153V45.4171H91.4582V45.3751H91.5012V45.3322H91.5431V45.2892H91.586V45.2473H91.629V45.2043H91.6709V45.1614H91.7139V45.1194H91.7568V45.0765H91.7987V45.0346H91.8417V44.9916H91.8836V44.9486H91.9265V44.9067H91.9695V44.8638H92.0114V44.8208H92.0543V44.7789H92.0973V44.7359H92.1392V44.6929H92.1821V44.651H92.224V44.6081H92.267V44.5662H92.3099V44.5232H92.3518V44.4802H92.3948V44.4383H92.4377V44.3953H92.4797V44.3524H92.5226V44.3105H92.5656V44.2675H92.6075V44.2256H92.6504V44.1826H92.6923V44.1397H92.7353V44.0977H92.7782V43.9699H92.8201V43.884H92.7782V43.7572H92.7353V43.6712H92.6923V43.6293H92.6504V43.5864H92.6075V43.5434H92.5656V43.5015H92.5226V43.4585H92.4797V43.4166H92.4377V43.3736H92.3948V43.3307H92.3518V43.2888H92.3099V43.2458H92.267V43.2028H92.224V43.1609H92.1821V43.118H92.1392V43.075H92.0973V43.0331H92.0543V42.9901H92.0114V42.9482H91.9695V42.9052H91.9265V42.8623H91.8836V42.8203H91.8417V42.7774H91.7987V42.7344H91.7568V42.6925H91.7139V42.6495H91.6709V42.6076H91.629V42.5647H91.586V42.5217H91.5431V42.4798H91.5012V42.4368H91.4582V42.3938H91.4153V42.3519H91.3734V42.309H91.3304V42.266H91.2885V42.2241H91.2456V42.1811H91.2026V42.1392H91.1607V42.0962H91.1178V42.0533H91.0748V42.0114H91.0329V41.9684H90.99V41.9254H90.9481V41.8835H90.9051V41.8406H90.8621V41.7986H90.8202V41.7557H90.7773V41.7127H90.7343V41.6708H90.6924V41.6278H90.6495V41.5849H90.6065V41.543H90.5646V41.5H90.5217V41.457H90.4798V41.4151H90.4368V41.3721H90.3939V41.3302H90.352V41.2873H90.309V41.2443H90.2661V41.2024H90.2242V41.1594H90.1812V41.1165H90.1393V41.0745H90.0963V41.0316H90.0534V40.9897H90.0115V40.9467H89.9685V40.9037H89.9256V40.8618H89.8837V40.8188H89.8407V40.7759H89.7978V40.734H89.7559V40.691H89.7129V40.648H89.671V40.6061H89.6281V40.5632H89.5851V40.5212H89.5432V40.4783H89.5003V40.4353H89.4573V40.3934H89.4154V40.3504H89.3725V40.3075H89.3305V40.2656H89.2876V40.2226H89.2446V40.1807H89.2027V40.1377H89.1598V40.0947H89.1168V40.0528H89.0749V40.0099H89.032V39.9669H88.989V39.925H88.9471V39.882H88.9042V39.8391H88.8623V39.7971H88.8193V39.7542H88.7764V39.7123H88.7345V39.6693H88.6915V39.6263H88.6486V39.5844H88.6067V39.5415H88.5637V39.4985H88.5208V39.4566H88.4788V39.4136H88.4359V39.3706H88.394V39.3287H88.351V39.2858H88.3081V39.2439H88.2662V39.2009H88.2232V39.1579H88.1803V39.116H88.1384V39.073H88.0954V39.0301H88.0535V38.9882H88.0106V38.9452H87.9676V38.9033H87.9257V38.8603H87.8828V38.8174H87.8398V38.7754H87.7979V38.7325H87.755V38.6895H87.712V38.6476H87.6701V38.6046H87.6271V38.5627H87.5852V38.5197H87.5423V38.4768H87.4993V38.4349H87.4574V38.3919H87.4145V38.3489H87.3715V38.307H87.3296V38.2641H87.2867V38.2211H87.2437V38.1792H87.2018V38.1362H87.1589V38.0933H87.117V38.0513H87.074V38.0084H87.0311V37.9665H86.9892V37.9235H86.9462V37.8805H86.9032V37.8386H86.8613V37.7956H86.8184V37.7527H86.7765V37.7108H86.7335V37.6678H86.6906V37.6259H86.6487V37.5829H86.6057V37.54H86.5628V37.498H86.5209V37.4551H86.4779V37.4121H86.435V37.3702H86.3931V37.3272H86.3501V37.2853H86.3082V37.2424H86.2653V37.1994H86.2223V37.1575H86.1804V37.1145H86.1374V37.0715H86.0945V37.0296H86.0526V36.9867H86.0096V36.9437H85.9667V36.9018H85.9248V36.8588H85.8818V36.8159H85.8399V36.7739H85.797V36.731H85.754V36.6891H85.7121V36.6461H85.6692V36.6031H85.6262V36.5612H85.5843V36.5183H85.5414V36.4753H85.4995V36.4334H85.4565V36.3904H85.5414V36.4334H85.5843V36.4753H85.6692V36.5183H85.754V36.5612H85.8399V36.6031H85.9248V36.6461H85.9667V36.6891H86.0526V36.731H86.1374V36.7739H86.2223V36.8159H86.3082V36.8588H86.3931V36.9018H86.435V36.9437H86.5209V36.9867H86.6057V37.0296H86.6906V37.0715H86.7765V37.1145H86.8184V37.1575H86.9032V37.1994H86.9892V37.2424H87.074V37.2853H87.1589V37.3272H87.2437V37.3702H87.2867V37.4121H87.3715V37.4551H87.4574V37.498H87.5423V37.54H87.6271V37.5829H87.712V37.6259H87.755V37.6678H87.8398V37.7108H87.9257V37.7527H88.0106V37.7956H88.0954V37.8386H88.1384V37.8805H88.2232V37.9235H88.3081V37.9665H88.394V38.0084H88.4788V38.0513H88.5637V38.0933H88.6067V38.1362H88.6915V38.1792H88.7764V38.2211H88.8623V38.2641H88.9471V38.307H88.989V38.3489H89.0749V38.3919H89.2876V38.3489H89.3725V38.307H89.4154V38.2641H89.4573V38.2211H89.5003V38.0513H89.5432V31.0251H89.5003V30.8983H89.4573V30.8554H89.4154V30.8124H89.3725V30.7705H89.2876V30.7275H78.8587V30.6846H78.9865V30.6427H79.1143V30.5997H79.284V30.5578H79.4548V30.5148H79.5826V30.4719H79.7523V30.4299H79.8801V30.387H80.0509V30.344H80.1787V30.3021H80.3484V30.2591H80.4762V30.2162H80.6459V30.1742H80.7737V30.1313H80.9445V30.0894H81.1142V30.0464H81.242V30.0034H81.4128V29.9615H81.5406V29.9186H81.7103V29.8756H81.8381V29.8337H82.0088V29.7907H82.1366V29.7488H82.3064V29.7058H82.4342V29.6629H82.6039V29.621H82.7317V29.578H82.9024V29.535H82.9873V29.4931H83.0303V29.4072H83.0722V29.1096H83.0303V29.0666H82.9873V28.9817H82.9454V28.9398H82.9024V28.8969H82.8595V28.8539H82.8176V28.812H82.7746V28.769H82.7317V28.726H82.6898V28.6841H82.6468V28.6412H82.6039V28.5982H82.562V28.5563H82.519V28.5133H82.4771V28.4714H82.4342V28.4284H82.3912V28.3855H82.3493V28.3436H82.3064V28.3006H82.2634V28.2576H82.2215V28.2157H82.1786V28.1728H82.1366V28.1308H82.0937V28.0879H82.0507V28.0449H82.0088V28.003H81.9659V27.96H81.9229V27.9171H81.881V27.8751H81.8381V27.8322H81.7951V27.7892H81.7532V27.7473H81.7103V27.7043H81.6684V27.6624H81.6254V27.6195H81.5825V27.5765H81.5406V27.5346H81.4976V27.4916H81.4547V27.4487H81.4128V27.4067H81.3698V27.3638H81.3279V27.3219H81.2849V27.2789H81.242V27.2359H81.2001V27.194H81.1571V27.151H81.1142V27.1081H81.0723V27.0662H81.0293V27.0232H80.9864V26.9802H80.9445V26.9383H80.9015V26.8954H80.8596V26.8534H80.8167V26.8105H80.7737V26.7675H80.7318V26.7256H80.6889V26.6826H80.6459V26.6397H80.604V26.5978H80.561V26.5548H80.5191V26.5118H80.4762V26.4699H80.4332V26.4269H80.3913V26.385H80.3484V26.3421H80.3054V26.2991H80.2635V26.2572H80.2206V26.2142H80.1787V26.1713H80.1357V26.1293H80.0928V26.0864H80.0509V26.0445H80.0079V26.0015H79.965V25.9585H79.9231V25.9166H79.8801V25.8737H79.8372V25.8307H79.7952V25.7888H79.7523V25.7458H79.7104V25.7028H79.6674V25.6609H79.6245V25.618H79.5826V25.576H79.5396V25.5331H79.4967V25.4901H79.4548V25.4482H79.4118V25.4052H79.3689V25.3623H79.327V25.3204H79.284V25.2774H79.2421V25.2344H79.1992V25.1925H79.1562V25.1496H79.1143V25.1076H79.0714V25.0647H79.0284V25.0217H78.9865V24.9798H78.9435V24.9368H78.9016V24.8939H78.8587V24.8519H78.8157V24.809H78.7738V24.766H78.7309V24.7241H78.6879V24.6811H78.646V24.6392H78.6031V24.5963H78.5612V24.5533H78.5182V24.5114H78.4753V24.4684H78.4334V24.4254H78.3904V24.3835H78.3475V24.3406H78.3056V24.2987H78.2626V24.2557H78.2197V24.2127H78.1777V24.1708H78.1348V24.1278H78.0929V24.0849H78.007V24.043H77.9651V24H77.6665V24.043H77.5817V24.0849H77.5387V24.1278H77.4968V24.1708H77.4539V24.2127H77.4109V24.2557H77.369V24.2987H77.326V24.3406H77.2841V24.3835H77.2412V24.4254H77.1982V24.4684H77.1563V24.5114H77.1134V24.5533H77.0704V24.5963H77.0285V24.6392H76.9856V24.6811H76.9426V24.7241H76.9007V24.766H76.8578V24.809H76.8159V24.8519H76.7729V24.8939H76.73V24.9368H76.6881V24.9798H76.6451V25.0217H76.6021V25.0647H76.5602V25.1076H76.5173V25.1496H76.4743V25.1925H76.4324V25.2344H76.3895V25.2774H76.3476V25.3204H76.3046V25.3623H76.2617V25.4052H76.2198V25.4482H76.1768V25.4901H76.1339V25.5331H76.092V25.576H76.049V25.618H76.0071V25.6609H75.9642V25.7028H75.9212V25.7458H75.8793V25.7888H75.8363V25.8307H75.7934V25.8737H75.7515V25.9166H75.7085V25.9585H75.6656V26.0015H75.6237V26.0445H75.5807V26.0864H75.5388V26.1293H75.4959V26.1713H75.4529V26.2142H75.411V26.2572H75.3681V26.2991H75.3251V26.3421H75.2832V26.385H75.2403V26.4269H75.1973V26.4699H75.1554V26.5118H75.1125V26.5548H75.0705V26.5978H75.0276V26.6397H74.9846V26.6826H74.9427V26.7256H74.8998V26.7675H74.8568V26.8105H74.8149V26.8534H74.772V26.8954H74.729V26.9383H74.6871V26.9802H74.6442V27.0232H74.6023V27.0662H74.5593V27.1081H74.5164V27.151H74.4745V27.194H74.4315V27.2359H74.3886V27.2789H74.3467V27.3219H74.3037V27.3638H74.2618V27.4067H74.2188V27.4487H74.1759V27.4916H74.134V27.5346H74.091V27.5765H74.0481V27.6195H74.0062V27.6624H73.9632V27.7043H73.9203V27.7473H73.8784V27.7892H73.8354V27.8322H73.7935V27.8751H73.7506V27.9171H73.7076V27.96H73.6657V28.003H73.6228V28.0449H73.5798V28.0879H73.5379V28.1308H73.495V28.1728H73.452V28.2157H73.4101V28.2576H73.3671V28.3006H73.3252V28.3436H73.2823V28.3855H73.2393V28.4284H73.1974V28.4714H73.1545V28.5133H73.1115V28.5563H73.0696V28.5982H73.0267V28.6412H72.9848V28.6841H72.9418V28.726H72.8989V28.769H72.857V28.812H72.814V28.8539H72.7711V28.8969H72.7292V28.9398H72.6862V28.9817H72.6432V29.0247H72.6013V29.0666H72.5584V29.1096H72.5165V29.1525H72.4735V29.1945H72.4306V29.2374H72.3887V29.2804H72.3457V29.3223H72.3028V29.3653H72.2609V29.4072H72.2179V29.4501H72.175V29.4931H72.1331V29.535H72.0901V29.578H72.0482V29.621H72.0053V29.6629H71.9623V29.7058H71.9204V29.7488H71.8774V29.7907H71.8345V29.8337H71.7926V29.8756H71.7496V29.9186H71.7077V29.9615H71.6648V30.0034H71.6218V30.0464H71.5799V30.0894H71.537V30.1313H71.494V30.1742H71.4521V30.2162H71.4092V30.2591H71.3673V30.3021H71.3243V30.344H71.2814V30.387H71.2395V30.4299H71.1965V30.4719H71.1536V30.5148H71.1116V30.5578H71.0687V30.5997H71.0257V30.6427H70.9838V30.6846H70.9409V30.7275H70.899V30.7705H70.856V30.8124H70.8131V30.8554H70.7712V30.8983H70.7282V30.9403H70.6853V30.9832H70.6434V31.0251H70.6004V31.0681H70.5575V31.1111H70.5156V31.153H70.4726V31.196H70.4307V31.2389H70.3878V31.2808H70.3448V31.3238H70.3029V31.3668H70.2599Z" fill="#005994"/>
<path fill-rule="evenodd" clip-rule="evenodd" d="M59.5755 65.5151H59.5336V65.6H59.4906V65.6849H59.4477V65.7278H59.4058V65.7708H59.3628V65.8127H59.3209V65.8557H59.235V65.8986H59.1501V65.9405H59.0653V65.9835H58.8945V66.0254H57.4048V64.3226H58.9794V64.3656H59.1072V64.4075H59.1931V64.4504H59.278V64.4934H59.3209V64.5353H59.3628V64.5783H59.4058V64.6212H59.4477V64.6632H59.4906V64.748H59.5336V64.834H59.5755V64.9618H59.6184V65.3873H59.5755V65.5151ZM56.3834 60.7891H56.2556V60.831H56.1708V60.8739H56.1278V60.9169H56.0859V60.9588H56.043V61.0437H56V67.0052H56.043V67.0901H56.0859V67.1331H56.1278V67.175H56.2127V67.2179H56.2986V67.2609H59.3628V67.2179H59.5755V67.175H59.7033V67.1331H59.8311V67.0901H59.9159V67.0482H60.0019V67.0052H60.0867V66.9623H60.1716V66.9203H60.2145V66.8774H60.2994V66.8344H60.3423V66.7925H60.3842V66.7495H60.4272V66.7076H60.4701V66.6647H60.512V66.6217H60.555V66.5798H60.5969V66.5368H60.6398V66.4938H60.6828V66.4519H60.7247V66.366H60.7677V66.3241H60.8106V66.2392H60.8525V66.1533H60.8955V66.0684H60.9384V65.9835H60.9803V65.8557H61.0233V65.7278H61.0652V65.5151H61.1081V64.834H61.0652V64.6632H61.0233V64.5353H60.9803V64.4075H60.9384V64.3226H60.8955V64.2377H60.8525V64.1528H60.8106V64.1099H60.7677V64.025H60.7247V63.982H60.6828V63.8971H60.6398V63.8542H60.5969V63.8123H60.555V63.7693H60.512V63.7263H60.4701V63.6844H60.4272V63.6414H60.3842V63.5985H60.3423V63.5566H60.2994V63.5136H60.2145V63.4717H60.1716V63.4287H60.0867V63.3858H60.0438V63.3438H59.9589V63.3009H59.8311V63.2579H59.7462V63.216H59.6184V63.173H59.4058V63.1301H57.4048V61.9805H60.2994V61.9386H60.3423V61.8537H60.3842V60.8739H60.3423V60.7891H60.2564V60.7461H56.3834V60.7891Z" fill="#005994"/>
<path fill-rule="evenodd" clip-rule="evenodd" d="M67.9183 60.7891H67.7905V60.831H67.7486V60.8739H67.7056V60.9169H67.6637V60.9588H67.6208V61.0437H67.5778V61.1715H67.5359V61.64H67.493V62.3641H67.45V63.0882H67.4081V63.6844H67.3651V64.1947H67.3222V64.6212H67.2803V64.9188H67.2373V65.1316H67.1954V65.3024H67.1525V65.4302H67.1095V65.557H67.0676V65.6429H67.0247V65.7278H66.9817V65.7708H66.9398V65.8127H66.8969V65.8557H66.855V65.8986H66.812V65.9405H66.7691V65.9835H66.6413V66.0254H66.3867V66.0684H66.3437V66.1114H66.3008V67.175H66.3437V67.2179H66.3867V67.2609H67.0247V67.2179H67.2373V67.175H67.3651V67.1331H67.45V67.0901H67.5359V67.0482H67.5778V67.0052H67.6637V66.9623H67.7056V66.9203H67.7486V66.8774H67.7905V66.8344H67.8334V66.7925H67.8764V66.7495H67.9183V66.7076H67.9612V66.6647H68.0042V66.5798H68.0461V66.5368H68.089V66.4519H68.132V66.409H68.1739V66.3241H68.2169V66.2392H68.2588V66.1533H68.3017V66.0254H68.3447V65.9405H68.3866V65.8127H68.4295V65.6849H68.4725V65.5151H68.5144V65.3024H68.5573V65.0897H68.5992V64.834H68.6422V64.4934H68.6851V64.0669H68.727V63.5566H68.77V62.9603H68.8129V62.2792H68.8548V62.0235H70.6431V67.2179H70.685V67.2609H72.005V67.2179H72.0479V61.0437H72.005V60.9588H71.962V60.9169H71.9201V60.8739H71.8772V60.831H71.7923V60.7891H71.6645V60.7461H67.9183V60.7891Z" fill="#005994"/>
<path fill-rule="evenodd" clip-rule="evenodd" d="M73.0262 60.7891H72.9414V60.831H72.8984V67.2179H72.9414V67.2609H74.2614V67.2179H74.3033V64.3656H75.3247V64.4075H75.5803V64.4504H75.7081V64.4934H75.793V64.5353H75.8359V64.5783H75.8789V64.6212H75.9208V64.6632H75.9637V64.7061H76.0067V64.748H76.0486V64.834H76.0915V64.9188H76.1334V65.0037H76.1764V65.1316H76.2193V65.3024H76.2613V65.4302H76.3042V65.6H76.3472V65.7708H76.3891V65.8986H76.432V66.0684H76.4739V66.1962H76.5169V66.366H76.5598V66.4938H76.6017V66.6647H76.6447V66.7925H76.6876V66.9623H76.7295V67.0901H76.7725V67.2179H76.8154V67.2609H78.0925V67.2179H78.1344V67.175H78.1773V67.0052H78.1344V66.8344H78.0925V66.7076H78.0495V66.5368H78.0066V66.366H77.9647V66.1962H77.9217V66.0684H77.8788V65.8986H77.8369V65.7278H77.7939V65.557H77.7509V65.4302H77.709V65.2594H77.6661V65.0897H77.6242V64.9188H77.5812V64.791H77.5383V64.6632H77.4964V64.5353H77.4534V64.4504H77.4105V64.3656H77.3686V64.2807H77.3256V64.2377H77.2837V64.1528H77.2408V64.1099H77.1978V64.0669H77.113V64.025H77.07V63.982H77.0281V63.9391H76.9422V63.8971H76.8573V63.8542H76.7725V63.8123H76.6447V63.7693H76.6876V63.7263H76.7725V63.6844H76.8154V63.6414H76.8573V63.5985H76.9003V63.5566H76.9422V63.5136H76.9851V63.4717H77.0281V63.4287H77.07V63.3858H77.113V63.3438H77.1559V63.2579H77.1978V63.216H77.2408V63.1301H77.2837V63.0452H77.3256V62.9603H77.3686V62.8325H77.4105V62.7046H77.4534V62.5349H77.4964V62.3641H77.5383V62.1943H77.5812V62.0235H77.6242V61.8537H77.6661V61.6829H77.709V61.5121H77.7509V61.3423H77.7939V61.2145H77.8369V61.0437H77.8788V60.831H77.8369V60.7891H77.7509V60.7461H76.6447V60.7891H76.5598V60.831H76.5169V60.9169H76.4739V61.0867H76.432V61.2575H76.3891V61.3843H76.3472V61.5551H76.3042V61.7259H76.2613V61.8956H76.2193V62.0235H76.1764V62.1943H76.1334V62.3641H76.0915V62.4919H76.0486V62.6197H76.0067V62.7476H75.9637V62.8325H75.9208V62.8754H75.8789V62.9603H75.8359V63.0033H75.793V63.0452H75.7511V63.0882H75.7081V63.1301H75.6233V63.173H75.5384V63.216H75.4106V63.2579H74.3033V60.831H74.2614V60.7891H74.1755V60.7461H73.0262V60.7891Z" fill="#005994"/>
<path fill-rule="evenodd" clip-rule="evenodd" d="M80.5612 64.6632H80.6042V64.5353H80.6461V64.4075H80.6891V64.2377H80.732V64.1099H80.7739V63.982H80.8169V63.8123H80.8598V63.6844H80.9017V63.5566H80.9447V63.3858H80.9866V63.216H81.0295V63.0452H81.0725V62.9173H81.1144V62.7476H81.1573V62.5768H81.2003V62.407H81.2422V62.2792H81.2851V62.3211H81.3281V62.4919H81.37V62.6617H81.413V62.8325H81.4549V62.9603H81.4978V63.1301H81.5408V63.3009H81.5827V63.4717H81.6256V63.6414H81.6686V63.7693H81.7105V63.8971H81.7534V64.0669H81.7953V64.1947H81.8383V64.3226H81.8812V64.4934H81.9231V64.6212H81.9661V64.748H80.5612V64.6632ZM80.732 60.7891H80.6042V60.831H80.5612V60.8739H80.5193V60.9169H80.4764V60.9588H80.4334V61.0018H80.3915V61.0867H80.3486V61.1715H80.3056V61.2994H80.2637V61.4272H80.2208V61.5551H80.1789V61.6829H80.1359V61.8108H80.093V61.9386H80.0511V62.0664H80.0081V62.1943H79.9652V62.3211H79.9233V62.4489H79.8803V62.5768H79.8374V62.7046H79.7954V62.8325H79.7525V62.9603H79.7106V63.0882H79.6676V63.216H79.6247V63.3438H79.5828V63.4717H79.5398V63.5985H79.4969V63.7263H79.455V63.8542H79.412V63.982H79.3691V64.1099H79.3272V64.2377H79.2842V64.3656H79.2423V64.4934H79.1994V64.6212H79.1564V64.748H79.1145V64.8759H79.0716V65.0037H79.0286V65.1316H78.9867V65.2594H78.9437V65.3873H78.9018V65.5151H78.8589V65.6429H78.8159V65.7708H78.774V65.8986H78.7311V66.0254H78.6881V66.1533H78.6462V66.2811H78.6033V66.409H78.5614V66.5798H78.5184V66.7076H78.4755V66.8344H78.4336V66.9623H78.3906V67.0901H78.3477V67.1331H78.3906V67.2179H78.4336V67.2609H79.7954V67.2179H79.8374V67.0901H79.8803V66.9623H79.9233V66.8344H79.9652V66.7076H80.0081V66.5368H80.0511V66.409H80.093V66.2811H80.1359V66.1533H80.1789V65.9835H80.2208V65.9405H82.3495V66.0684H82.3914V66.2392H82.4344V66.366H82.4773V66.4938H82.5192V66.6647H82.5622V66.7925H82.6041V66.9203H82.647V67.0901H82.69V67.175H82.7319V67.2179H82.7748V67.2609H84.1367V67.2179H84.1797V66.9623H84.1367V66.8344H84.0948V66.7076H84.0519V66.5798H84.0089V66.4519H83.967V66.3241H83.9241V66.1962H83.8811V66.0684H83.8392V65.9405H83.7963V65.8127H83.7543V65.6849H83.7114V65.557H83.6684V65.4302H83.6265V65.3024H83.5836V65.1745H83.5406V65.0467H83.4987V64.9188H83.4558V64.791H83.4139V64.6632H83.3709V64.5353H83.328V64.4075H83.2861V64.2807H83.2431V64.1528H83.2002V64.025H83.1583V63.8971H83.1153V63.7693H83.0724V63.6414H83.0305V63.5136H82.9875V63.3858H82.9456V63.2579H82.9026V63.1301H82.8597V63.0033H82.8178V62.8754H82.7748V62.7476H82.7319V62.6197H82.69V62.4919H82.647V62.3641H82.6041V62.2362H82.5622V62.1084H82.5192V61.9805H82.4773V61.8537H82.4344V61.7259H82.3914V61.598H82.3495V61.4702H82.3066V61.3423H82.2636V61.2145H82.2217V61.0867H82.1787V61.0018H82.1368V60.9588H82.0939V60.9169H82.0509V60.8739H82.009V60.831H81.9231V60.7891H81.7953V60.7461H80.732V60.7891Z" fill="#005994"/>
<path fill-rule="evenodd" clip-rule="evenodd" d="M62.9389 60.7891H62.7692V60.831H62.6414V60.8739H62.5136V60.9169H62.4287V60.9588H62.3428V61.0018H62.3009V61.0437H62.2161V61.0867H62.1731V61.1296H62.0883V61.1715H62.0453V61.2145H62.0024V61.2575H61.9605V61.2994H61.9175V61.3423H61.8745V61.4272H61.8326V61.4702H61.7897V61.5121H61.7478V61.598H61.7048V61.64H61.6619V61.7259H61.62V61.8108H61.577V61.9386H61.5341V62.0664H61.4922V62.3211H61.4492V65.7278H61.4922V65.9405H61.5341V66.1114H61.577V66.1962H61.62V66.2811H61.6619V66.366H61.7048V66.4519H61.7478V66.5368H61.7897V66.5798H61.8326V66.6217H61.8745V66.6647H61.9175V66.7076H61.9605V66.7495H62.0024V66.7925H62.0453V66.8344H62.0883V66.8774H62.1302V66.9203H62.1731V66.9623H62.258V67.0052H62.3009V67.0482H62.3858V67.0901H62.4706V67.1331H62.5565V67.175H62.6833V67.2179H62.8541V67.2609H65.9613V67.2179H66.0042V66.0684H65.9193V66.0254H63.2375V65.9835H63.1097V65.9405H63.0667V65.8986H63.0248V65.8557H62.9819V65.8127H62.9389V65.7278H62.897V64.3226H65.6208V64.2807H65.6637V64.2377H65.7056V63.173H65.6637V63.1301H62.897V62.2792H62.9389V62.1943H62.9819V62.1513H63.0248V62.1084H63.0667V62.0664H63.1516V62.0235H63.2794V61.9805H65.9613V61.9386H66.0042V60.831H65.9613V60.7891H65.8764V60.7461H62.9389V60.7891Z" fill="#005994"/>
<path fill-rule="evenodd" clip-rule="evenodd" d="M88.0531 63.1301H88.0102V63.216H87.9672V63.3009H87.9253V63.3438H87.8824V63.3858H87.8394V63.4287H87.7975V63.4717H87.7546V63.5136H87.7116V63.5566H87.6267V63.5985H87.5419V63.6414H87.3711V63.6844H86.0092V61.9805H87.3292V62.0235H87.4989V62.0664H87.6267V62.1084H87.7116V62.1513H87.7546V62.1943H87.7975V62.2362H87.8394V62.2792H87.8824V62.3211H87.9253V62.3641H87.9672V62.4489H88.0102V62.5349H88.0531V62.7476H88.095V62.9173H88.0531V63.1301ZM84.9449 60.7891H84.8171V60.831H84.7752V60.8739H84.6903V60.9588H84.6474V61.0018H84.6044V61.1296H84.5625V67.175H84.6044V67.2179H84.6474V67.2609H85.9244V67.2179H85.9663V67.1331H86.0092V64.9188H87.7116V64.8759H87.9672V64.834H88.138V64.791H88.2658V64.748H88.3506V64.7061H88.4355V64.6632H88.5203V64.6212H88.6063V64.5783H88.6482V64.5353H88.7341V64.4934H88.776V64.4504H88.8189V64.4075H88.8619V64.3656H88.9038V64.3226H88.9886V64.2807H89.0316V64.1947H89.0745V64.1528H89.1164V64.1099H89.1594V64.0669H89.2023V63.982H89.2442V63.9391H89.2872V63.8542H89.3301V63.7693H89.3721V63.6844H89.415V63.5985H89.4569V63.4717H89.4999V63.3009H89.5428V63.0452H89.5847V62.5768H89.5428V62.3641H89.4999V62.1943H89.4569V62.0664H89.415V61.9805H89.3721V61.8956H89.3301V61.8108H89.2872V61.7259H89.2442V61.6829H89.2023V61.598H89.1594V61.5551H89.1164V61.5121H89.0745V61.4702H89.0316V61.3843H88.9886V61.3423H88.9467V61.2994H88.8619V61.2575H88.8189V61.2145H88.776V61.1715H88.7341V61.1296H88.6482V61.0867H88.6063V61.0437H88.5203V61.0018H88.4355V60.9588H88.3506V60.9169H88.2228V60.8739H88.138V60.831H87.9672V60.7891H87.6267V60.7461H84.9449V60.7891Z" fill="#005994"/>
<path fill-rule="evenodd" clip-rule="evenodd" d="M89.7567 60.7891H89.6719V60.8739H89.6289V61.8956H89.6719V61.9386H89.7138V61.9805H91.4591V67.175H91.502V67.2179H91.5439V67.2609H92.821V67.2179H92.8639V67.175H92.9069V61.9805H94.6941V61.9386H94.737V60.831H94.6941V60.7891H94.6511V60.7461H89.7567V60.7891Z" fill="#005994"/>
</svg>
