<svg width="150" height="91" viewBox="0 0 150 91" fill="none" xmlns="http://www.w3.org/2000/svg">
<rect width="150" height="91" fill="#FFFCF4"/>
<path d="M65.9534 58.2567H59.793L63.6461 34.4316H69.8062L65.9534 58.2567Z" fill="#00579F"/>
<path d="M88.2862 35.0143C87.0711 34.5323 85.1438 34 82.7608 34C76.6772 34 72.3932 37.2441 72.3669 41.8822C72.3163 45.3041 75.4341 47.2048 77.766 48.3458C80.1493 49.5117 80.9595 50.2727 80.9595 51.3119C80.9353 52.9081 79.0336 53.6438 77.26 53.6438C74.8005 53.6438 73.4826 53.2645 71.4799 52.3765L70.6687 51.9958L69.8066 57.344C71.2515 58.0023 73.9135 58.5864 76.6772 58.612C83.1411 58.612 87.3493 55.4181 87.3992 50.4755C87.4238 47.7633 85.7775 45.6851 82.2282 43.987C80.0735 42.8968 78.754 42.1618 78.754 41.0464C78.7793 40.0324 79.8701 38.9938 82.3023 38.9938C84.305 38.9429 85.7765 39.4243 86.8912 39.9061L87.4484 40.1591L88.2862 35.0143Z" fill="#00579F"/>
<path d="M96.4726 49.8166C96.9799 48.4479 98.9321 43.1505 98.9321 43.1505C98.9065 43.2014 99.4384 41.7565 99.7426 40.8695L100.173 42.9225C100.173 42.9225 101.34 48.6254 101.593 49.8166C100.63 49.8166 97.6894 49.8166 96.4726 49.8166ZM104.077 34.4319H99.3117C97.8423 34.4319 96.7259 34.8624 96.0919 36.4087L86.9414 58.2566H93.4053C93.4053 58.2566 94.4695 55.316 94.6983 54.6827C95.4074 54.6827 101.695 54.6827 102.608 54.6827C102.785 55.5192 103.343 58.2566 103.343 58.2566H109.047L104.077 34.4319Z" fill="#00579F"/>
<path d="M54.647 34.4316L48.6139 50.6781L47.9547 47.3831C46.8393 43.5811 43.3412 39.4504 39.4375 37.3965L44.9636 58.2314H51.478L61.1611 34.4316H54.647Z" fill="#00579F"/>
<path d="M43.0129 34.4319H33.1014L33 34.9133C40.7316 36.8904 45.8521 41.6561 47.9558 47.3843L45.8012 36.4346C45.4465 34.9129 44.3563 34.4821 43.0129 34.4319Z" fill="#00579F"/>
</svg>
