<svg width="150" height="91" viewBox="0 0 150 91" fill="none" xmlns="http://www.w3.org/2000/svg">
<rect width="150" height="91" fill="#FFFCF4"/>
<path fill-rule="evenodd" clip-rule="evenodd" d="M30.2127 35.002H45.6352C46.8525 35.002 47.8479 35.9974 47.8479 37.2147V52.6372C47.8479 53.8545 46.8525 54.8505 45.6352 54.8505H30.2127C28.9955 54.8505 28 53.8545 28 52.6372V37.2147C28 35.9974 28.9955 35.002 30.2127 35.002Z" fill="#024978"/>
<path fill-rule="evenodd" clip-rule="evenodd" d="M41.4407 49.7579H39.0744C39.0062 49.7579 38.9499 49.7022 38.9499 49.634V49.0482L37.1693 50.8288C37.1209 50.8773 37.0418 50.8773 36.9933 50.8288L35.32 49.156C35.2721 49.1076 35.2721 49.0285 35.32 48.98L35.7344 48.5661H33.2156C33.1474 48.5661 33.0917 48.5099 33.0917 48.4417V46.0754C33.0917 46.0072 33.1474 45.9509 33.2156 45.9509H33.8013L32.0207 44.1703C31.9723 44.1219 31.9723 44.0428 32.0207 43.9943L33.694 42.321C33.7419 42.2731 33.8211 42.2731 33.8695 42.321L34.2839 42.7354V40.2171C34.2839 40.1483 34.3396 40.0926 34.4078 40.0926H36.7742C36.8424 40.0926 36.8986 40.1483 36.8986 40.2171V40.8028L38.6792 39.0217C38.7276 38.9732 38.8067 38.9732 38.8552 39.0217L40.5285 40.695C40.5764 40.7434 40.5764 40.8221 40.5285 40.8705L40.1141 41.2849H42.6324C42.7012 41.2849 42.7569 41.3406 42.7569 41.4093V43.7757C42.7569 43.8439 42.7012 43.8996 42.6324 43.8996H42.0472L43.8278 45.6802C43.8762 45.7286 43.8762 45.8077 43.8278 45.8562L42.1545 47.5295C42.1066 47.5779 42.0274 47.5779 41.979 47.5295L41.5646 47.1151V49.634C41.5646 49.7022 41.5089 49.7579 41.4407 49.7579ZM41.1361 43.1644L40.2114 43.8996H39.0744C39.0062 43.8996 38.9499 43.8439 38.9499 43.7757V41.4093L38.8161 42.5824L38.0122 43.3867C37.9638 43.4352 37.8847 43.4352 37.8363 43.3867L36.8986 42.4491L36.1629 41.7134L36.8986 42.6381V43.7752C36.8986 43.8439 36.8424 43.8996 36.7742 43.8996H34.4078L35.5819 44.0334L36.3858 44.8373C36.4342 44.8857 36.4342 44.9648 36.3858 45.0132L34.7124 46.6866L35.6371 45.9509H36.7742C36.8424 45.9509 36.8986 46.0072 36.8986 46.0754V48.4417L37.0324 47.2682L37.8363 46.4638C37.8847 46.4153 37.9638 46.4153 38.0122 46.4638L39.6856 48.1371L38.9499 47.2124V46.0754C38.9499 46.0072 39.0062 45.9509 39.0744 45.9509H41.4402H41.4407L40.2671 45.8171L39.4628 45.0132C39.4143 44.9648 39.4143 44.8857 39.4628 44.8373L40.4004 43.8996L41.1361 43.1644Z" fill="#FEFEFE"/>
<path d="M58.4471 42.9492C58.4757 43.8739 57.7452 44.5414 56.8211 44.5414H54.3913V41.4243H56.8378C57.701 41.4243 58.4184 42.0251 58.4471 42.9492ZM118.675 37.218V46.5021C118.675 46.6619 118.533 46.7702 118.373 46.7702H116.429C116.275 46.7702 116.127 46.6578 116.127 46.5021V37.218H113.078C112.922 37.218 112.809 37.0701 112.809 36.916V35.3239C112.809 35.1635 112.918 35.0224 113.078 35.0224C115.976 35.0224 118.876 35.0224 121.775 35.0224C121.935 35.0224 122.044 35.1635 122.044 35.3239V36.916C122.044 37.0701 121.931 37.218 121.775 37.218H118.675ZM69.9887 46.385V44.8423C69.9887 44.7278 69.9022 44.558 69.7044 44.558H65.1519C64.8739 44.558 64.3241 44.3654 64.3241 43.6594V41.4243H69.1634C69.366 41.4243 69.4519 41.2519 69.4519 41.1504V39.5801C69.4519 39.4156 69.3373 39.2959 69.1338 39.2959H64.3241V38.0432C64.3241 37.5106 64.7661 37.218 65.1519 37.218H69.6909C69.9033 37.218 69.9887 37.0545 69.9887 36.9342V35.3067C69.9887 35.1458 69.8679 35.0235 69.67 35.0224L64.9436 35C63.1682 34.9917 61.7766 36.4787 61.7766 38.1229V43.6865C61.7766 45.3926 63.2177 46.7702 64.877 46.7702H69.6997C69.8705 46.7702 69.9845 46.6448 69.9887 46.4865C69.9892 46.4579 69.9887 46.4188 69.9887 46.385ZM89.2707 40.5194V40.4356C89.631 40.2179 89.9324 39.9326 90.1698 39.5838C90.4098 39.2344 90.5863 38.821 90.6951 38.3462L91.4657 35.3546C91.4943 35.2218 91.4048 35.0224 91.1856 35.0224H89.354C89.2925 35.0198 89.2285 35.0308 89.1613 35.0589C89.0947 35.0839 89.0473 35.151 89.0192 35.2572L88.2648 38.0781C88.1752 38.4217 88.0555 38.6956 87.9071 38.8965C87.7592 39.1006 87.5947 39.2511 87.413 39.349C87.2344 39.4469 87.0501 39.5109 86.8658 39.5416C86.6784 39.5697 86.5024 39.5838 86.3379 39.5807H85.0139V35.3015C85.0139 35.1213 84.8619 35.0224 84.7343 35.0224H82.7684C82.6018 35.0224 82.4664 35.1427 82.4664 35.2906V46.5021C82.4664 46.6578 82.6137 46.7702 82.7684 46.7702H84.7124C84.8728 46.7702 85.0139 46.6619 85.0139 46.5021V41.5248H86.3712C86.7596 41.519 87.0892 41.5555 87.3573 41.6336C87.6254 41.7091 87.8488 41.8486 88.0279 42.0527C88.2034 42.2568 88.3517 42.5499 88.4657 42.9326L89.4982 46.5688C89.5549 46.7182 89.658 46.7702 89.7653 46.7702H91.7104C91.9561 46.7817 92.0285 46.5453 92.002 46.4355L90.9633 42.5473C90.8987 42.2958 90.8263 42.0667 90.7508 41.8626C90.6728 41.656 90.5749 41.4716 90.4546 41.3071C90.3375 41.1421 90.1807 40.9942 89.9912 40.863C89.8012 40.7344 89.5607 40.6199 89.2707 40.5194ZM96.3243 42.2458L96.9611 40.1227L97.5983 37.7319H97.6988L98.3189 40.1227L98.9557 42.2458H96.3243ZM99.5586 44.3232L100.212 46.5021C100.268 46.702 100.375 46.7702 100.501 46.7702H102.621C102.82 46.7692 102.949 46.6031 102.9 46.4047L99.4248 35.9414C99.2602 35.4316 99.016 35.0224 98.4236 35.0224L96.9189 35.0261C96.6195 35.0073 96.3577 35.1088 96.1541 35.377C96.0505 35.5134 95.9614 35.6982 95.8886 35.9414L92.4159 46.3912C92.3383 46.6239 92.5335 46.7702 92.6882 46.7702H94.7265C94.7916 46.7702 94.9306 46.7791 95.017 46.5969C95.0357 46.5563 95.0555 46.499 95.0675 46.4516L95.7209 44.3232H99.5586ZM109.997 38.7565C109.996 39.576 109.344 40.296 108.459 40.295L106.175 40.2924V37.218H108.354C109.341 37.1873 109.998 37.9365 109.997 38.7565ZM106.175 46.4183V42.4905H108.96C110.887 42.4905 112.691 40.9151 112.661 38.6924C112.661 38.1593 112.526 37.6574 112.33 37.218C111.869 36.1835 111.025 35.492 110.029 35.188C109.622 35.0641 109.177 35.0261 108.74 35.0224H104.487C104.036 35.0224 103.657 35.3343 103.637 35.8273C103.634 35.8961 103.627 35.9684 103.628 36.0444V46.4865C103.628 46.6489 103.749 46.7692 103.916 46.7702H105.895C105.997 46.7702 106.096 46.7088 106.142 46.6193C106.17 46.5635 106.175 46.499 106.175 46.4183ZM52.6716 46.7702H57.0726C59.2483 46.8463 61.0242 45.3374 61.0945 43.0836C61.0977 42.8904 61.1086 42.6603 61.0555 42.4072C60.6702 40.5631 59.2129 39.2959 57.3563 39.2959H54.3913V37.2013H59.4524C59.6435 37.2055 59.7586 37.0686 59.7539 36.8827V35.391C59.758 35.1869 59.682 35.0177 59.4524 35.0224H52.7325C52.0452 35.0224 51.8438 35.5259 51.8438 35.8497V45.944C51.8438 46.398 52.202 46.7702 52.6716 46.7702ZM72.7673 36.1455L72.6163 38.6924C72.5658 39.5614 72.5101 40.3127 72.4518 40.9552C72.3591 42.0152 72.2519 44.558 70.8784 44.558C70.8623 44.558 70.8436 44.5585 70.8243 44.558C70.7004 44.557 70.5431 44.6622 70.5431 44.8324V46.385C70.5431 46.4178 70.5431 46.4391 70.5431 46.4677C70.5431 46.6474 70.6645 46.7702 70.8274 46.7702C70.8514 46.7702 70.9263 46.7702 70.9498 46.7702C71.9848 46.7661 72.8928 46.6567 73.6748 45.4744C73.9206 45.1031 74.1361 44.6866 74.2897 44.2144C74.4459 43.7427 74.5688 43.2116 74.6583 42.628C74.7479 42.0444 74.8202 41.4019 74.8791 40.698C74.9348 39.9972 74.9905 39.2344 75.0462 38.4077L75.1133 37.2346H78.3814V46.487C78.3814 46.6432 78.5163 46.7848 78.6829 46.7702H80.6254C80.8269 46.7702 80.9289 46.6312 80.9289 46.4688V35.8502C80.9305 35.4098 80.5619 35.0224 80.0423 35.0224H73.6129C73.1188 35.0224 72.8256 35.4546 72.8043 35.8128C72.7986 35.9148 72.7741 36.0241 72.7673 36.1455Z" fill="#024978"/>
<path fill-rule="evenodd" clip-rule="evenodd" d="M55.5558 50.7639L54.7957 52.0446L53.3519 54.3849C53.3009 54.4646 53.2551 54.5286 53.2155 54.5771C53.1754 54.6255 53.1327 54.664 53.0874 54.6926C53.0416 54.7208 52.989 54.7395 52.9291 54.7478C52.8693 54.7567 52.7969 54.7608 52.7115 54.7608H52.37C52.1477 54.7608 51.9998 54.7083 51.9259 54.6026C51.8519 54.4974 51.8145 54.3537 51.8145 54.1715V48.9359C51.8145 48.8276 51.8743 48.7734 51.9941 48.7734H52.9078C52.9875 48.7734 53.0374 48.7849 53.0572 48.8078C53.0775 48.8307 53.0874 48.8734 53.0874 48.9359V52.7793H53.1384L53.8647 51.5834L55.3418 49.1582C55.3934 49.078 55.4386 49.0129 55.4787 48.9614C55.5188 48.9104 55.561 48.8703 55.6068 48.8422C55.6521 48.8135 55.7037 48.7948 55.7604 48.7865C55.8177 48.7781 55.8885 48.7734 55.9739 48.7734H56.3243C56.5351 48.7734 56.6804 48.8177 56.76 48.9062C56.8397 48.9942 56.8793 49.1493 56.8793 49.3717V54.5984C56.8793 54.7067 56.8194 54.7608 56.7002 54.7608H55.7864C55.7063 54.7608 55.6552 54.7494 55.6323 54.7265C55.6099 54.7036 55.5985 54.6614 55.5985 54.5984V50.7639H55.5558ZM59.3133 54.5901C59.3133 54.664 59.3008 54.7109 59.2753 54.7307C59.2492 54.751 59.1966 54.7608 59.117 54.7608H58.2631C58.1377 54.7608 58.0752 54.7036 58.0752 54.5901V50.439C58.0752 50.3307 58.1377 50.2771 58.2631 50.2771H59.117C59.1966 50.2771 59.2492 50.287 59.2753 50.3067C59.3008 50.3265 59.3133 50.3708 59.3133 50.439V51.8994H60.9106V50.439C60.9106 50.3307 60.9731 50.2771 61.1001 50.2771H61.9597C62.0394 50.2771 62.0919 50.287 62.1148 50.3067C62.1378 50.3265 62.1492 50.3708 62.1492 50.439V54.5901C62.1492 54.664 62.1378 54.7109 62.1148 54.7307C62.0919 54.751 62.0394 54.7608 61.9597 54.7608H61.1001C60.9731 54.7608 60.9106 54.7036 60.9106 54.5901V52.8735H59.3133V54.5901ZM65.4032 51.2845V54.5901C65.4032 54.664 65.3902 54.7109 65.3647 54.7307C65.3392 54.751 65.2866 54.7608 65.2069 54.7608H64.3614C64.2302 54.7608 64.1646 54.7036 64.1646 54.5901V51.2845H62.952C62.838 51.2845 62.7813 51.222 62.7813 51.0966V50.4733C62.7813 50.3937 62.7912 50.3411 62.8109 50.3151C62.8307 50.2896 62.8781 50.2771 62.952 50.2771H66.6413C66.71 50.2771 66.7553 50.2896 66.7782 50.3151C66.8011 50.3411 66.8126 50.3937 66.8126 50.4733V51.0966C66.8126 51.222 66.7553 51.2845 66.6413 51.2845H65.4032ZM69.144 50.1656C69.8099 50.1656 70.3098 50.3322 70.643 50.6655C70.9762 50.9987 71.1428 51.4756 71.1428 52.0962C71.1428 52.3919 71.0855 52.5944 70.9715 52.7022C70.858 52.8105 70.7013 52.8647 70.5019 52.8647H68.3157C68.3214 53.0469 68.3511 53.1979 68.4052 53.3176C68.4594 53.4368 68.5318 53.5337 68.6229 53.6076C68.714 53.6816 68.8207 53.7331 68.9431 53.7617C69.0654 53.7898 69.1982 53.8044 69.3403 53.8044C69.5054 53.8044 69.6735 53.7841 69.8443 53.7446C70.0151 53.7045 70.1744 53.6534 70.3228 53.5904C70.391 53.5681 70.4378 53.5608 70.4633 53.5691C70.4889 53.5779 70.5133 53.605 70.5362 53.6503L70.8096 54.2652C70.8325 54.3167 70.8367 54.3563 70.8221 54.3849C70.808 54.4136 70.7783 54.4417 70.7325 54.4703C70.5222 54.6073 70.277 54.7051 69.9979 54.765C69.7194 54.8249 69.4601 54.8546 69.2211 54.8546C68.475 54.8546 67.9226 54.6697 67.5639 54.2996C67.2052 53.9294 67.0261 53.3431 67.0261 52.5403C67.0261 52.1644 67.0755 51.8296 67.1755 51.5365C67.2749 51.2434 67.4176 50.994 67.6024 50.7894C67.7872 50.5842 68.0096 50.4291 68.2683 50.3239C68.5276 50.2187 68.8197 50.1656 69.144 50.1656ZM69.1695 51.1908C68.9363 51.1908 68.7452 51.2731 68.5974 51.4386C68.4495 51.6037 68.3641 51.814 68.3412 52.0702H69.9385C69.9385 51.9452 69.9255 51.8286 69.9 51.7203C69.874 51.612 69.8328 51.5193 69.7761 51.4428C69.7194 51.3657 69.6423 51.3048 69.5455 51.259C69.4486 51.2137 69.3231 51.1908 69.1695 51.1908ZM73.2863 56.3577C73.2863 56.4207 73.2764 56.4602 73.2566 56.4774C73.2363 56.4946 73.1868 56.5029 73.1082 56.5029H72.2257C72.1632 56.5029 72.119 56.4946 72.0904 56.4774C72.0622 56.4602 72.0477 56.4207 72.0477 56.3577V50.7894C72.0477 50.7269 72.0576 50.6769 72.0779 50.6399C72.0976 50.603 72.1445 50.5645 72.219 50.5244C72.4918 50.3994 72.7979 50.3109 73.1368 50.2599C73.4758 50.2083 73.7986 50.1828 74.1063 50.1828C74.5103 50.1828 74.8508 50.2443 75.1267 50.3666C75.4032 50.489 75.625 50.654 75.7932 50.8617C75.9608 51.07 76.0821 51.3157 76.1561 51.6005C76.23 51.8853 76.267 52.1899 76.267 52.5143C76.267 52.8334 76.2274 53.1338 76.1472 53.4155C76.0675 53.6977 75.9436 53.9434 75.7786 54.1543C75.6135 54.3652 75.4032 54.5318 75.1497 54.6541C74.8945 54.7765 74.5972 54.8379 74.2541 54.8379C74.0834 54.8379 73.9241 54.8306 73.7788 54.816C73.6335 54.802 73.4685 54.7749 73.2863 54.7353V56.3577ZM74.969 52.4888C74.969 52.2555 74.9461 52.0592 74.9003 51.8994C74.855 51.7401 74.7868 51.612 74.6983 51.5152C74.6103 51.4183 74.5004 51.3501 74.3723 51.3105C74.2427 51.2704 74.099 51.2507 73.9381 51.2507C73.8585 51.2507 73.7549 51.259 73.6252 51.2762C73.4971 51.2934 73.3831 51.3157 73.2863 51.3444V53.6758C73.4357 53.7159 73.5679 53.7414 73.6851 53.7529C73.8033 53.7643 73.9069 53.7701 73.9996 53.7701C74.2854 53.7701 74.5176 53.6732 74.6983 53.4795C74.8789 53.2859 74.969 52.9558 74.969 52.4888ZM78.4448 54.5901C78.4448 54.664 78.4323 54.7109 78.4063 54.7307C78.3808 54.751 78.3282 54.7608 78.2485 54.7608H77.3947C77.2692 54.7608 77.2067 54.7036 77.2067 54.5901V50.439C77.2067 50.3307 77.2692 50.2771 77.3947 50.2771H78.2485C78.3282 50.2771 78.3808 50.287 78.4063 50.3067C78.4323 50.3265 78.4448 50.3708 78.4448 50.439V51.8994H80.0421V50.439C80.0421 50.3307 80.1046 50.2771 80.2316 50.2771H81.0912C81.1709 50.2771 81.2235 50.287 81.2464 50.3067C81.2693 50.3265 81.2807 50.3708 81.2807 50.439V54.5901C81.2807 54.664 81.2693 54.7109 81.2464 54.7307C81.2235 54.751 81.1709 54.7608 81.0912 54.7608H80.2316C80.1046 54.7608 80.0421 54.7036 80.0421 54.5901V52.8735H78.4448V54.5901ZM84.3296 50.1656C84.996 50.1656 85.4953 50.3322 85.8285 50.6655C86.1618 50.9987 86.3284 51.4756 86.3284 52.0962C86.3284 52.3919 86.2711 52.5944 86.1576 52.7022C86.0436 52.8105 85.8869 52.8647 85.6875 52.8647H83.5013C83.507 53.0469 83.5367 53.1979 83.5908 53.3176C83.645 53.4368 83.7173 53.5337 83.8085 53.6076C83.8996 53.6816 84.0063 53.7331 84.1287 53.7617C84.2515 53.7898 84.3838 53.8044 84.5259 53.8044C84.6909 53.8044 84.8591 53.7841 85.0299 53.7446C85.2007 53.7045 85.36 53.6534 85.5084 53.5904C85.5766 53.5681 85.6234 53.5608 85.6489 53.5691C85.675 53.5779 85.6989 53.605 85.7218 53.6503L85.9952 54.2652C86.0181 54.3167 86.0222 54.3563 86.0082 54.3849C85.9936 54.4136 85.9639 54.4417 85.9181 54.4703C85.7078 54.6073 85.4625 54.7051 85.1835 54.765C84.9049 54.8249 84.6457 54.8546 84.4067 54.8546C83.6606 54.8546 83.1082 54.6697 82.7495 54.2996C82.3908 53.9294 82.2116 53.3431 82.2116 52.5403C82.2116 52.1644 82.2611 51.8296 82.3611 51.5365C82.4605 51.2434 82.6032 50.994 82.788 50.7894C82.9728 50.5842 83.1951 50.4291 83.4544 50.3239C83.7132 50.2187 84.0053 50.1656 84.3296 50.1656ZM84.3551 51.1908C84.1219 51.1908 83.9313 51.2731 83.7829 51.4386C83.6351 51.6037 83.5497 51.814 83.5268 52.0702H85.1241C85.1241 51.9452 85.1111 51.8286 85.0856 51.7203C85.0596 51.612 85.0184 51.5193 84.9617 51.4428C84.9049 51.3657 84.8279 51.3048 84.731 51.259C84.6342 51.2137 84.5087 51.1908 84.3551 51.1908ZM89.3856 51.2845V54.5901C89.3856 54.664 89.3731 54.7109 89.3476 54.7307C89.3215 54.751 89.269 54.7608 89.1893 54.7608H88.3438C88.2126 54.7608 88.1475 54.7036 88.1475 54.5901V51.2845H86.9344C86.8209 51.2845 86.7636 51.222 86.7636 51.0966V50.4733C86.7636 50.3937 86.7735 50.3411 86.7938 50.3151C86.8136 50.2896 86.8605 50.2771 86.9344 50.2771H90.6242C90.6924 50.2771 90.7382 50.2896 90.7611 50.3151C90.7835 50.3411 90.795 50.3937 90.795 50.4733V51.0966C90.795 51.222 90.7382 51.2845 90.6242 51.2845H89.3856ZM96.432 54.5984C96.432 54.6614 96.4205 54.7036 96.3976 54.7265C96.3752 54.7494 96.3237 54.7608 96.244 54.7608H95.3131C95.1933 54.7608 95.134 54.7067 95.134 54.5984V49.9095H92.8275V54.5984C92.8275 54.6614 92.8161 54.7036 92.7937 54.7265C92.7708 54.7494 92.7198 54.7608 92.6396 54.7608H91.7004C91.5806 54.7608 91.5213 54.7067 91.5213 54.5984V49.3545C91.5213 49.1551 91.5624 49.0082 91.6446 48.9145C91.7274 48.8208 91.8685 48.7734 92.0674 48.7734H95.8853C96.0904 48.7734 96.2326 48.8208 96.3122 48.9145C96.3924 49.0082 96.432 49.1551 96.432 49.3545V54.5984ZM101.429 54.2053C101.429 54.2798 101.418 54.3423 101.398 54.3938C101.379 54.4448 101.329 54.4932 101.249 54.5385C101.118 54.6015 100.979 54.6526 100.828 54.6926C100.677 54.7322 100.523 54.7635 100.368 54.7864C100.211 54.8093 100.053 54.8264 99.8937 54.8379C99.736 54.8488 99.585 54.8546 99.4423 54.8546C99.057 54.8546 98.7363 54.8176 98.4833 54.7437C98.2313 54.6697 98.0277 54.5687 97.8741 54.4407C97.7216 54.3126 97.6133 54.1616 97.5508 53.9877C97.4883 53.8143 97.4571 53.6274 97.4571 53.4285C97.4571 53.2062 97.4941 53.0026 97.568 52.8178C97.6419 52.6325 97.7528 52.4721 97.9012 52.3352C98.0491 52.1982 98.2355 52.0915 98.4604 52.015C98.6853 51.9379 98.9513 51.8994 99.259 51.8994H100.198V51.763C100.198 51.6833 100.19 51.6063 100.173 51.5323C100.156 51.4584 100.12 51.3944 100.066 51.3402C100.012 51.2861 99.9364 51.2418 99.8396 51.208C99.7432 51.1736 99.6146 51.1564 99.4553 51.1564C99.3699 51.1564 99.2731 51.1606 99.1648 51.1694C99.057 51.1778 98.9487 51.1892 98.8405 51.2033C98.7322 51.2179 98.627 51.2345 98.5244 51.2548C98.4219 51.2746 98.3307 51.296 98.2511 51.3189C98.1772 51.3361 98.1256 51.3361 98.0975 51.3189C98.0689 51.3017 98.0491 51.2647 98.0376 51.208L97.9012 50.6097C97.884 50.5473 97.8825 50.503 97.8965 50.4775C97.9111 50.452 97.9408 50.4306 97.9866 50.4135C98.2427 50.3224 98.5119 50.2568 98.7936 50.2172C99.0753 50.1771 99.3559 50.1573 99.6349 50.1573C100.254 50.1573 100.708 50.2896 100.995 50.5546C101.284 50.819 101.429 51.2106 101.429 51.7286V54.2053ZM100.19 52.7283H99.5152C99.4355 52.7283 99.3502 52.734 99.259 52.7449C99.1679 52.7564 99.0841 52.7834 99.0071 52.8261C98.93 52.8688 98.866 52.9303 98.8149 53.0099C98.7634 53.0896 98.7379 53.1979 98.7379 53.3343C98.7379 53.5337 98.805 53.6732 98.9389 53.7529C99.0727 53.8325 99.2533 53.8726 99.4808 53.8726C99.5152 53.8726 99.5605 53.8711 99.6178 53.8685C99.6745 53.8653 99.736 53.8596 99.8016 53.8513C99.8666 53.8424 99.9338 53.831 100.002 53.8169C100.07 53.8029 100.133 53.7841 100.19 53.7617V52.7283ZM103.786 56.3577C103.786 56.4207 103.776 56.4602 103.756 56.4774C103.736 56.4946 103.686 56.5029 103.607 56.5029H102.725C102.662 56.5029 102.618 56.4946 102.59 56.4774C102.561 56.4602 102.547 56.4207 102.547 56.3577V50.7894C102.547 50.7269 102.557 50.6769 102.577 50.6399C102.597 50.603 102.644 50.5645 102.718 50.5244C102.991 50.3994 103.297 50.3109 103.636 50.2599C103.975 50.2083 104.298 50.1828 104.606 50.1828C105.01 50.1828 105.35 50.2443 105.626 50.3666C105.902 50.489 106.124 50.654 106.292 50.8617C106.46 51.07 106.581 51.3157 106.655 51.6005C106.729 51.8853 106.766 52.1899 106.766 52.5143C106.766 52.8334 106.727 53.1338 106.647 53.4155C106.567 53.6977 106.443 53.9434 106.278 54.1543C106.113 54.3652 105.902 54.5318 105.649 54.6541C105.394 54.7765 105.096 54.8379 104.753 54.8379C104.583 54.8379 104.423 54.8306 104.278 54.816C104.133 54.802 103.968 54.7749 103.786 54.7353V56.3577ZM105.468 52.4888C105.468 52.2555 105.445 52.0592 105.4 51.8994C105.354 51.7401 105.286 51.612 105.197 51.5152C105.11 51.4183 105 51.3501 104.872 51.3105C104.742 51.2704 104.598 51.2507 104.437 51.2507C104.358 51.2507 104.254 51.259 104.124 51.2762C103.996 51.2934 103.882 51.3157 103.786 51.3444V53.6758C103.935 53.7159 104.067 53.7414 104.184 53.7529C104.303 53.7643 104.406 53.7701 104.499 53.7701C104.785 53.7701 105.017 53.6732 105.197 53.4795C105.379 53.2859 105.468 52.9558 105.468 52.4888ZM111.848 52.4976C111.848 53.2489 111.669 53.8299 111.31 54.2397C110.952 54.65 110.405 54.8546 109.67 54.8546C108.93 54.8546 108.389 54.65 108.047 54.2397C107.706 53.8299 107.535 53.2546 107.535 52.5143C107.535 52.1503 107.585 51.8213 107.685 51.5282C107.784 51.2345 107.927 50.9888 108.112 50.7894C108.296 50.59 108.521 50.4364 108.786 50.3281C109.051 50.2198 109.351 50.1656 109.688 50.1656C110.405 50.1656 110.944 50.3723 111.306 50.7852C111.668 51.1976 111.848 51.7687 111.848 52.4976ZM110.559 52.5231C110.559 52.3294 110.544 52.1529 110.516 51.9936C110.487 51.8343 110.439 51.6974 110.371 51.5834C110.302 51.4699 110.214 51.3798 110.106 51.3147C109.998 51.2491 109.864 51.2163 109.704 51.2163C109.403 51.2163 109.179 51.3319 109.034 51.562C108.889 51.7927 108.816 52.1045 108.816 52.4976C108.816 52.9245 108.883 53.2489 109.017 53.4712C109.151 53.693 109.371 53.8044 109.679 53.8044C109.838 53.8044 109.973 53.7716 110.084 53.706C110.196 53.6404 110.287 53.5493 110.358 53.4327C110.429 53.3161 110.48 53.1807 110.512 53.0271C110.543 52.8735 110.559 52.7053 110.559 52.5231ZM116.255 50.2771C116.454 50.2771 116.59 50.3182 116.661 50.4005C116.732 50.4832 116.768 50.6155 116.768 50.7977V54.5984C116.768 54.6666 116.755 54.7109 116.729 54.7307C116.704 54.751 116.651 54.7608 116.571 54.7608H115.709C115.629 54.7608 115.576 54.7478 115.55 54.7223C115.525 54.6968 115.512 54.6526 115.512 54.5901V51.2845H114.462L114.436 51.7286C114.408 52.2243 114.371 52.6512 114.325 53.0099C114.28 53.3686 114.203 53.6748 114.094 53.9283C113.986 54.1814 113.832 54.3881 113.633 54.5474C113.434 54.7067 113.169 54.8379 112.839 54.9399C112.759 54.9686 112.702 54.9728 112.668 54.953C112.634 54.9332 112.605 54.8947 112.583 54.8379L112.352 54.2569C112.324 54.1829 112.314 54.1303 112.322 54.0986C112.331 54.0673 112.372 54.0319 112.446 53.9924C112.599 53.9237 112.723 53.8471 112.818 53.7617C112.911 53.6758 112.988 53.5535 113.048 53.3942C113.108 53.2348 113.155 53.0229 113.189 52.7579C113.223 52.4934 113.254 52.1446 113.283 51.7114L113.343 50.7805C113.354 50.5931 113.398 50.4619 113.475 50.388C113.552 50.314 113.684 50.2771 113.872 50.2771H116.255ZM118.416 54.7608C118.194 54.7608 118.049 54.7166 117.98 54.6286C117.912 54.5401 117.878 54.4193 117.878 54.2652V50.439C117.878 50.3307 117.941 50.2771 118.066 50.2771H118.92C119 50.2771 119.052 50.287 119.078 50.3067C119.104 50.3265 119.116 50.3708 119.116 50.439V51.6776H120.175C120.591 51.6776 120.92 51.7359 121.162 51.8525C121.404 51.9692 121.587 52.1102 121.713 52.2753C121.838 52.4403 121.916 52.6101 121.948 52.7834C121.979 52.9573 121.994 53.101 121.994 53.2151C121.994 53.4368 121.952 53.642 121.866 53.8299C121.781 54.0179 121.663 54.1798 121.512 54.3167C121.361 54.4531 121.183 54.5614 120.978 54.6411C120.774 54.7208 120.551 54.7608 120.312 54.7608H118.416ZM120.722 53.1979C120.722 53.0386 120.673 52.9032 120.573 52.7923C120.473 52.6809 120.324 52.6257 120.124 52.6257H119.116V53.7872H120.115C120.235 53.7872 120.335 53.7669 120.415 53.7274C120.494 53.6873 120.557 53.6378 120.602 53.5779C120.648 53.5181 120.679 53.454 120.697 53.3858C120.714 53.3176 120.722 53.2546 120.722 53.1979Z" fill="#024978"/>
</svg>
