<svg xmlns="http://www.w3.org/2000/svg" xml:space="preserve" style="enable-background:new 0 0 512 512" viewBox="0 0 64 64">
  <path d="M11.39 30.74a6.93 6.93 0 1 0 6.93-6.93 6.94 6.94 0 0 0-6.93 6.93zm10.86 0a3.93 3.93 0 1 1-3.93-3.93 3.93 3.93 0 0 1 3.93 3.93z" data-original="#000000"/>
  <path d="M61.83 23.63a16.5 16.5 0 0 1-1.77 1.59v14.36l-6.31-10.92a2.15 2.15 0 0 0-.41-.53 2.63 2.63 0 0 0-1.94-.83 2.67 2.67 0 0 0-2.07 1 2.21 2.21 0 0 0-.28.4L43 39.09l-3.73-6.45a2.72 2.72 0 0 0-4.71 0l-9.32 16.19c-8.29-1-15.45 1.1-20.69 2.64l-.65.19V19.53a1 1 0 0 1 1-1h31.69c-.12-.3-.22-.61-.32-.92a13.45 13.45 0 0 1-.49-2.08H4.9a4 4 0 0 0-4 4v39.66a4 4 0 0 0 4 4h54.16a4 4 0 0 0 4-4v-37a15.1 15.1 0 0 1-1.22 1.45zm-1.77 35.56a1 1 0 0 1-1 1H4.9a1 1 0 0 1-1-1v-4.41l1.49-.43c5-1.47 11.82-3.48 19.5-2.55a2.52 2.52 0 0 0 2.79-1.19l9.26-16L40.66 41a2.72 2.72 0 0 0 4.71 0l6-10.43L60 45.5z" data-original="#000000"/>
  <path d="M50.82 25.4a12.29 12.29 0 1 0-12.29-12.29A12.3 12.3 0 0 0 50.82 25.4zm0-21.58a9.27 9.27 0 0 1 7.53 14.7L45.4 5.58a9.23 9.23 0 0 1 5.42-1.76zM43.28 7.7l12.95 12.94A9.27 9.27 0 0 1 43.28 7.7z" data-original="#000000"/>
</svg>
