<svg xmlns="http://www.w3.org/2000/svg" version="1.1" xmlns:xlink="http://www.w3.org/1999/xlink" viewBox="0 0 28 28" style="enable-background:new 0 0 512 512" xml:space="preserve" class=""><g><g data-name="Layer 2"><path d="M10.042 13.5H8a.5.5 0 0 0 0 1h2.042a1.157 1.157 0 0 0 1.158-1.155V9.261a1.157 1.157 0 0 0-1.155-1.156H8a.5.5 0 0 0 0 1h2.042a.156.156 0 0 1 .155.156V10.8H8a.5.5 0 0 0 0 1h2.2v1.542a.155.155 0 0 1-.158.158zM15.918 13.345v-1.387a1.157 1.157 0 0 0-1.155-1.158H13.22V9.261a.156.156 0 0 1 .156-.156h2.042a.5.5 0 0 0 0-1h-2.042a1.158 1.158 0 0 0-1.156 1.156v4.084a1.158 1.158 0 0 0 1.156 1.155h1.387a1.157 1.157 0 0 0 1.155-1.155zm-1 0a.155.155 0 0 1-.155.155h-1.387a.155.155 0 0 1-.156-.155V11.8h1.543a.155.155 0 0 1 .155.155zM18.413 14.5h.753a1.473 1.473 0 0 0 1.473-1.472V9.577a1.474 1.474 0 0 0-1.473-1.472h-.753a1.475 1.475 0 0 0-1.473 1.472v3.451a1.474 1.474 0 0 0 1.473 1.472zm-.473-4.923a.473.473 0 0 1 .473-.472h.753a.473.473 0 0 1 .473.472v3.451a.473.473 0 0 1-.473.472h-.753a.473.473 0 0 1-.473-.472zM22.145 8.824a1.356 1.356 0 1 0-1.355-1.355 1.357 1.357 0 0 0 1.355 1.355zm0-1.711a.356.356 0 1 1-.355.356.355.355 0 0 1 .355-.356z" fill="#000000" opacity="1" data-original="#000000" class=""></path><path d="M12.644 17.228a.5.5 0 1 0-.707.707l.835.834C6.708 18.586 2.5 17.067 2.5 15.79c0-.465.7-1.192 2.657-1.84a.5.5 0 1 0-.314-.95c-2.187.724-3.343 1.688-3.343 2.79 0 2.523 5.829 3.825 11.311 3.982l-.874.874a.5.5 0 0 0 .707.708l1.71-1.71a.5.5 0 0 0 0-.707zM23.157 13a.5.5 0 1 0-.314.949C24.8 14.6 25.5 15.325 25.5 15.79c0 1.2-3.642 2.664-9.524 2.953a.5.5 0 0 0 .024 1h.024c5.214-.257 10.476-1.578 10.476-3.953 0-1.102-1.156-2.066-3.343-2.79z" fill="#000000" opacity="1" data-original="#000000" class=""></path></g></g></svg>