<svg width="154" height="142" viewBox="0 0 154 142" fill="none" xmlns="http://www.w3.org/2000/svg">
<rect width="153.75" height="142" transform="translate(0.25)" fill="white"/>
<rect width="153.75" height="142" transform="translate(0.25)" fill="white" fill-opacity="0.2"/>
<g clip-path="url(#clip0_7_448)">
<path d="M111.89 69.3488C111.79 68.6004 111.102 68.0748 110.354 68.1746C109.606 68.2744 109.08 68.9621 109.18 69.7106C109.237 70.1369 109.266 70.5707 109.266 71C109.266 75.6 106.013 79.9846 100.106 83.3462C93.9561 86.846 85.7504 88.7734 77 88.7734C71.4707 88.7734 66.1596 88.003 61.4466 86.5534C59.997 81.8404 59.2266 76.5293 59.2266 71C59.2266 62.2497 61.154 54.0439 64.6537 47.8943C68.0154 41.9873 72.4 38.7344 77 38.7344C80.8601 38.7344 83.9338 40.9604 86.147 43.4078H84.7468C83.9918 43.4078 83.3796 44.0199 83.3796 44.775C83.3796 45.5301 83.9918 46.1422 84.7468 46.1422H88.9885C89.7434 46.1422 90.3556 45.5301 90.3556 44.775V40.5332C90.3556 39.7781 89.7434 39.166 88.9885 39.166C88.2335 39.166 87.6213 39.7781 87.6213 40.5332V40.9938C84.4505 37.7497 80.7714 36 77 36C71.3746 36 66.146 39.7438 62.2772 46.5417C58.5467 53.097 56.4922 61.783 56.4922 71C56.4922 76.0643 57.1137 80.9673 58.2914 85.4456C56.735 84.8261 55.2634 84.1254 53.8943 83.3461C47.9875 79.9846 44.7344 75.6 44.7344 71C44.7344 67.1171 46.9867 64.0294 49.4512 61.8132V63.2063C49.4512 63.9614 50.0634 64.5735 50.8184 64.5735C51.5733 64.5735 52.1855 63.9614 52.1855 63.2063V58.9645C52.1855 58.2094 51.5733 57.5973 50.8184 57.5973H46.5767C45.8217 57.5973 45.2095 58.2094 45.2095 58.9645C45.2095 59.7196 45.8217 60.3317 46.5767 60.3317H47.0426C43.7675 63.5133 42 67.2099 42 71C42 76.6253 45.7438 81.854 52.5417 85.7227C54.5944 86.8908 56.856 87.8946 59.2774 88.7224C60.1053 91.1439 61.109 93.4056 62.2772 95.4582C66.146 102.256 71.3746 106 77 106C80.2251 106 83.4277 104.718 86.2615 102.292C86.835 101.801 86.9021 100.938 86.411 100.364C85.9201 99.7904 85.057 99.7234 84.4833 100.214C82.1183 102.239 79.6005 103.266 77 103.266C72.4 103.266 68.0154 100.013 64.6537 94.1057C63.8746 92.7365 63.1738 91.2649 62.5544 89.7086C67.0327 90.8863 71.9357 91.5078 77 91.5078C86.217 91.5078 94.903 89.4533 101.458 85.7227C108.256 81.854 112 76.6253 112 71C112 70.4478 111.963 69.8962 111.89 69.3488Z" fill="#1D280B"/>
<path d="M110.21 64.4537L110.204 64.4433C109.841 63.788 109.017 63.5464 108.357 63.9038C107.693 64.2634 107.446 65.0931 107.806 65.757L107.817 65.7773C107.904 65.9345 108.021 66.073 108.161 66.1849C108.302 66.2969 108.463 66.3801 108.635 66.4297C108.808 66.4794 108.988 66.4945 109.167 66.4743C109.345 66.4541 109.518 66.3989 109.675 66.3118C110.336 65.9464 110.575 65.1145 110.21 64.4537ZM89.7691 96.1306C89.1558 95.6913 88.2969 95.8404 87.8567 96.4522L87.8497 96.4619C87.4147 97.0775 87.5537 97.9383 88.1685 98.3747C88.3976 98.5375 88.6717 98.6247 88.9526 98.6242C89.3842 98.6242 89.8109 98.4212 90.0795 98.0448C90.5172 97.4311 90.382 96.5698 89.7691 96.1306ZM86.6407 67.0615C86.6175 65.1388 85.0394 63.5746 83.1231 63.5746H78.3009V59.9685C78.301 59.7646 78.3821 59.5691 78.5263 59.4249C78.6705 59.2807 78.866 59.1996 79.0699 59.1995H83.0341C83.789 59.1995 84.4012 58.5874 84.4012 57.8323C84.4012 57.0772 83.789 56.4651 83.0341 56.4651H79.0699C77.1381 56.4651 75.5665 58.0367 75.5665 59.9685V71.0057C75.5665 72.9375 77.1381 74.5091 79.0699 74.5091H83.1231C85.0394 74.5091 86.6175 72.9449 86.6407 71.0222L86.6408 71.0057V67.078L86.6407 67.0615ZM83.9062 70.9953C83.8976 71.4255 83.5476 71.7746 83.1229 71.7746H79.0698C78.8659 71.7744 78.6704 71.6933 78.5262 71.5491C78.382 71.4049 78.3009 71.2094 78.3007 71.0055V66.3088H83.1229C83.5476 66.3088 83.8977 66.658 83.9062 67.0883V70.9953ZM95.7154 56.4651H91.648C89.7162 56.4651 88.1446 58.0367 88.1446 59.9685V71.0057C88.1446 72.9375 89.7162 74.5091 91.648 74.5091H95.7154C97.6472 74.5091 99.2188 72.9375 99.2188 71.0057V59.9685C99.2188 58.0367 97.6472 56.4651 95.7154 56.4651ZM96.4844 71.0057C96.4843 71.2096 96.4032 71.4051 96.259 71.5493C96.1148 71.6935 95.9193 71.7745 95.7154 71.7747H91.648C91.4441 71.7745 91.2486 71.6935 91.1044 71.5493C90.9602 71.4051 90.8792 71.2096 90.879 71.0057V59.9685C90.8792 59.7646 90.9602 59.5691 91.1044 59.4249C91.2486 59.2807 91.4441 59.1996 91.648 59.1995H95.7154C95.9193 59.1996 96.1148 59.2807 96.259 59.4249C96.4032 59.5691 96.4843 59.7646 96.4844 59.9685V71.0057ZM70.557 56.4651H67.0664C65.1346 56.4651 63.563 58.0367 63.563 59.9685V60.0168C63.563 60.7719 64.1752 61.384 64.9302 61.384C65.6851 61.384 66.2974 60.7719 66.2974 60.0168V59.9685C66.2975 59.7646 66.3786 59.5691 66.5228 59.4249C66.667 59.2807 66.8625 59.1996 67.0664 59.1995H70.557C70.7609 59.1996 70.9564 59.2807 71.1006 59.4249C71.2448 59.5691 71.3258 59.7646 71.326 59.9685V64.12H67.8192C67.0642 64.12 66.452 64.7321 66.452 65.4872C66.452 66.2423 67.0642 66.8543 67.8192 66.8543H71.326V71.0057C71.3258 71.2096 71.2448 71.4051 71.1006 71.5493C70.9564 71.6935 70.7609 71.7745 70.557 71.7747H67.0664C66.8625 71.7745 66.667 71.6935 66.5228 71.5493C66.3786 71.4051 66.2975 71.2096 66.2974 71.0057V70.8165C66.2974 70.0614 65.6851 69.4493 64.9302 69.4493C64.1752 69.4493 63.563 70.0614 63.563 70.8165V71.0057C63.563 72.9375 65.1346 74.5091 67.0664 74.5091H70.557C72.4888 74.5091 74.0604 72.9375 74.0604 71.0057V59.9685C74.0604 58.0367 72.4888 56.4651 70.557 56.4651ZM104.747 54.2058C102.747 54.2058 101.12 55.8326 101.12 57.8323C101.12 59.8319 102.747 61.4587 104.747 61.4587C106.746 61.4587 108.373 59.8319 108.373 57.8323C108.373 55.8326 106.746 54.2058 104.747 54.2058ZM104.747 58.7242C104.51 58.7239 104.284 58.6299 104.116 58.4626C103.949 58.2954 103.855 58.0686 103.855 57.8321C103.855 57.5956 103.949 57.3689 104.116 57.2017C104.284 57.0344 104.51 56.9403 104.747 56.94C104.983 56.9403 105.21 57.0344 105.377 57.2016C105.545 57.3689 105.639 57.5956 105.639 57.8321C105.639 58.0686 105.544 58.2954 105.377 58.4626C105.21 58.6299 104.983 58.7239 104.747 58.7242Z" fill="#1D280B"/>
</g>
<defs>
<clipPath id="clip0_7_448">
<rect width="70" height="70" fill="white" transform="translate(42 36)"/>
</clipPath>
</defs>
</svg>
